<svg xmlns="http://www.w3.org/2000/svg" xmlns:xlink="http://www.w3.org/1999/xlink" width="32" height="32" version="1.1"><defs><linearGradient id="l" x1="24" x2="24" y1="5" y2="43" gradientTransform="matrix(.56757 0 0 .67568 2.3784 -.21621)" gradientUnits="userSpaceOnUse"><stop offset="0" stop-color="#fff"/><stop offset=".027" stop-color="#fff" stop-opacity=".235"/><stop offset=".974" stop-color="#fff" stop-opacity=".157"/><stop offset="1" stop-color="#fff" stop-opacity=".392"/></linearGradient><radialGradient id="c" cx="7.496" cy="8.45" r="20" gradientTransform="matrix(1.1657e-8 1.6179 -1.4834 -2.9808e-8 28.734 -9.2241)" gradientUnits="userSpaceOnUse"><stop offset="0" stop-color="#5f5f5f"/><stop offset=".262" stop-color="#4f4f4f"/><stop offset=".705" stop-color="#3b3b3b"/><stop offset="1" stop-color="#2b2b2b"/></radialGradient><linearGradient id="k" x1="24" x2="24" y1="44" y2="3.899" gradientTransform="matrix(0.6 0 0 .69231 1.8 -.61538)" gradientUnits="userSpaceOnUse"><stop offset="0" stop-color="#272727"/><stop offset="1" stop-color="#454545"/></linearGradient><radialGradient id="b" cx="24.502" cy="6.648" r="17.498" gradientTransform="matrix(0 1.8069 -2.0594 0 30.19 -41.984)" gradientUnits="userSpaceOnUse"><stop offset="0" stop-color="#c4ea71"/><stop offset="1" stop-color="#7c9d35"/></radialGradient><linearGradient id="j" x1="32.901" x2="32.901" y1="4.648" y2="61.482" gradientTransform="matrix(.45331 0 0 .48531 1.9942 .11705)" gradientUnits="userSpaceOnUse"><stop offset="0" stop-color="#96bf3e"/><stop offset="1" stop-color="#4d6b0d"/></linearGradient><linearGradient id="i" x1="10.654" x2="10.654" y1="1" y2="3" gradientTransform="matrix(0.6 0 0 0.75 .60001 .12498)" gradientUnits="userSpaceOnUse" xlink:href="#a"/><linearGradient id="a"><stop offset="0" stop-color="#eee"/><stop offset="1" stop-color="#d9d9da"/></linearGradient><linearGradient id="h" x1="24" x2="24" y1="44" y2="3.899" gradientTransform="matrix(0.6 0 0 .076923 1.8002 .15385)" gradientUnits="userSpaceOnUse"><stop offset="0" stop-color="#272727"/><stop offset="1" stop-color="#454545"/></linearGradient><linearGradient id="g" x1="24.627" x2="24.64" y1="3.123" y2="4.883" gradientTransform="matrix(.69042 0 0 1.0165 .25019 -2.4917)" gradientUnits="userSpaceOnUse" xlink:href="#a"/><linearGradient id="f" x1="5.212" x2="54.887" y1=".065" y2=".065" gradientTransform="matrix(.49254 0 0 .49377 .89029 .14413)" gradientUnits="userSpaceOnUse"><stop offset="0" stop-color="#96bf3e"/><stop offset="1" stop-color="#4d6b0d"/></linearGradient><radialGradient id="e" cx="4.993" cy="43.5" r="2.5" gradientTransform="matrix(2.0038 0 0 1.4 27.988 -17.4)" gradientUnits="userSpaceOnUse"><stop offset="0" stop-color="#181818"/><stop offset="1" stop-color="#181818" stop-opacity="0"/></radialGradient><radialGradient id="d" cx="4.993" cy="43.5" r="2.5" gradientTransform="matrix(2.0038 0 0 1.4 -20.012 -104.4)" gradientUnits="userSpaceOnUse"><stop offset="0" stop-color="#181818"/><stop offset="1" stop-color="#181818" stop-opacity="0"/></radialGradient><linearGradient id="m" x1="25.058" x2="25.058" y1="47.028" y2="39.999" gradientUnits="userSpaceOnUse"><stop offset="0" stop-color="#181818" stop-opacity="0"/><stop offset=".5" stop-color="#181818"/><stop offset="1" stop-color="#181818" stop-opacity="0"/></linearGradient></defs><g><g opacity=".4" transform="matrix(0.65 0 0 .33333 0.4 15.333) matrix(1.0526 0 0 1.2857 -1.2632 -13.429)"><rect width="5" height="7" x="38" y="40" fill="url(#e)"/><rect width="5" height="7" x="-10" y="-47" fill="url(#d)" transform="scale(-1)"/><rect width="28" height="7" x="10" y="40" fill="url(#m)"/></g></g><g stroke-linejoin="round"><path fill="url(#g)" stroke="url(#f)" stroke-miterlimit="0" stroke-width="1.017" d="m27.491 2.3044c-0.203-0.6551-0.076-1.171-0.188-1.7957h-20.794l0.12273 1.9826"/><g stroke-linecap="round"><path fill="url(#i)" stroke="url(#h)" d="m7.5002 3.5h-2.4c-0.3425 0-0.6-0.0318-0.6-0.0732v-2.0973c0-0.66594 0.33542-0.8295 0.77454-0.8295h2.2255" color="#000"/><rect width="21.981" height="26.981" x="5.51" y="2.51" fill="url(#b)" stroke="url(#j)" stroke-miterlimit="0" stroke-width="1.019" rx=".5" ry=".5"/><path fill="url(#c)" stroke="url(#k)" d="m7.5 2.5v27h-2.4c-0.34251 0-0.6-0.28577-0.6-0.65854v-26.341z" color="#000"/><rect width="21" height="25" x="5.5" y="3.5" fill="none" stroke="url(#l)" opacity=".5"/></g></g><g opacity=".2"><path d="m50.463 22.014c-19.869 0-35.984 11.045-35.984 24.674 0 6.475 3.667 12.342 9.612 16.748l-4.027 14.551 20.54-7.582c3.132 0.615 6.438 0.967 9.859 0.967 19.873 0 35.98-11.049 35.98-24.684 0-13.629-16.107-24.674-35.98-24.674z" transform="matrix(-.17866 0 0 .17866 25.444 7.067)"/></g><g fill="#fff"><path fill="#fff" d="m50.463 22.014c-19.869 0-35.984 11.045-35.984 24.674 0 6.475 3.667 12.342 9.612 16.748l-4.027 14.551 20.54-7.582c3.132 0.615 6.438 0.967 9.859 0.967 19.873 0 35.98-11.049 35.98-24.684 0-13.629-16.107-24.674-35.98-24.674z" transform="matrix(-.17866 0 0 .17866 25.444 6.067)"/></g></svg>