<svg xmlns="http://www.w3.org/2000/svg" xmlns:xlink="http://www.w3.org/1999/xlink" width="32" height="32" version="1.1"><defs><linearGradient id="p" x1="16" x2="16" y1="9" y2="25" gradientTransform="matrix(1 0 0 -1 0 34.004)" gradientUnits="userSpaceOnUse" xlink:href="#a"/><linearGradient id="a"><stop offset="0"/><stop offset="1" stop-opacity="0"/></linearGradient><linearGradient id="o" x1="16" x2="16" y1="9" y2="25" gradientUnits="userSpaceOnUse" xlink:href="#a"/><linearGradient id="n" x1="19.927" x2="19.927" y1="44.949" y2="4.997" gradientTransform="matrix(.66667 0 0 .66667 .0000011 .33333)" gradientUnits="userSpaceOnUse"><stop offset="0" stop-color="#505050"/><stop offset="1" stop-color="#8e8e8e"/></linearGradient><linearGradient id="l" x1="24" x2="24" y1="5" y2="43" gradientTransform="matrix(.62162 0 0 .62162 1.0811 2.0811)" gradientUnits="userSpaceOnUse"><stop offset="0" stop-color="#fff"/><stop offset=".063" stop-color="#fff" stop-opacity=".235"/><stop offset=".951" stop-color="#fff" stop-opacity=".157"/><stop offset="1" stop-color="#fff" stop-opacity=".392"/></linearGradient><radialGradient id="s" cx="7.496" cy="8.45" r="20" gradientTransform="matrix(1.2454e-8 1.4981 -1.5848 -2.76e-8 29.391 -6.3556)" gradientUnits="userSpaceOnUse"><stop offset="0" stop-color="#c7c7c7"/><stop offset=".262" stop-color="#a6a6a6"/><stop offset=".705" stop-color="#7b7b7b"/><stop offset="1" stop-color="#595959"/></radialGradient><linearGradient id="m" x1="24" x2="24" y1="44" y2="3.899" gradientTransform="matrix(.64103 0 0 .64103 .61539 1.6154)" gradientUnits="userSpaceOnUse"><stop offset="0" stop-color="#505050"/><stop offset="1" stop-color="#8e8e8e"/></linearGradient><radialGradient id="q" cx="4.993" cy="43.5" r="2.5" gradientTransform="matrix(2.0038 0 0 1.4 27.988 -17.4)" gradientUnits="userSpaceOnUse"><stop offset="0" stop-color="#181818"/><stop offset="1" stop-color="#181818" stop-opacity="0"/></radialGradient><radialGradient id="r" cx="4.993" cy="43.5" r="2.5" gradientTransform="matrix(2.0038 0 0 1.4 -20.012 -104.4)" gradientUnits="userSpaceOnUse"><stop offset="0" stop-color="#181818"/><stop offset="1" stop-color="#181818" stop-opacity="0"/></radialGradient><linearGradient id="k" x1="25.058" x2="25.058" y1="47.028" y2="39.999" gradientUnits="userSpaceOnUse"><stop offset="0" stop-color="#181818" stop-opacity="0"/><stop offset=".5" stop-color="#181818"/><stop offset="1" stop-color="#181818" stop-opacity="0"/></linearGradient></defs><g><g opacity=".4" transform="matrix(.7 0 0 .33333 -.8 15.333) matrix(1.0526 0 0 1.2857 -1.2632 -13.429)"><rect width="5" height="7" x="38" y="40" fill="url(#q)"/><rect width="5" height="7" x="-10" y="-47" fill="url(#r)" transform="scale(-1)"/><rect width="28" height="7" x="10" y="40" fill="url(#k)"/></g></g><rect width="25" height="25" x="3.5" y="4.5" fill="url(#s)" stroke="url(#m)" stroke-linecap="round" stroke-linejoin="round" color="#000" rx="2" ry="2"/><rect width="23" height="23" x="4.5" y="5.5" fill="none" stroke="url(#l)" stroke-linecap="round" stroke-linejoin="round" opacity=".5" rx="1" ry="1"/><path fill="#fff" d="m15 10c-0.277 0-0.5 0.223-0.5 0.5v1.6875c-0.54864 0.14074-1.055 0.37601-1.5312 0.65625l-1.219-1.219c-0.19587-0.19587-0.49163-0.19587-0.6875 0l-1.437 1.437c-0.19587 0.19587-0.19587 0.49163 0 0.6875l1.2188 1.2188c-0.28 0.476-0.516 0.982-0.656 1.531h-1.688c-0.277 0-0.5 0.223-0.5 0.5v2c0 0.277 0.223 0.5 0.5 0.5h1.6875c0.14074 0.54864 0.37601 1.055 0.65625 1.5312l-1.219 1.219c-0.19587 0.19587-0.19587 0.49163 0 0.6875l1.4375 1.4375c0.19587 0.19587 0.49163 0.19587 0.6875 0l1.2188-1.2188c0.47623 0.28024 0.98261 0.51551 1.5312 0.65625v1.6875c0 0.277 0.223 0.5 0.5 0.5h2c0.277 0 0.5-0.223 0.5-0.5v-1.6875c0.54864-0.14074 1.055-0.37601 1.5312-0.65625l1.219 1.219c0.19587 0.19587 0.49163 0.19587 0.6875 0l1.4375-1.4375c0.19587-0.19587 0.19587-0.49163 0-0.6875l-1.22-1.219c0.28-0.476 0.516-0.982 0.656-1.531h1.6875c0.277 0 0.5-0.223 0.5-0.5v-2c0-0.277-0.223-0.5-0.5-0.5h-1.6875c-0.14-0.549-0.376-1.055-0.656-1.531l1.219-1.219c0.19587-0.19587 0.19587-0.49163 0-0.6875l-1.437-1.437c-0.19587-0.19587-0.49163-0.19587-0.6875 0l-1.2188 1.2188c-0.476-0.28-0.982-0.516-1.531-0.656v-1.688c0-0.277-0.223-0.5-0.5-0.5h-2zm1 5c1.6569 0 3 1.3431 3 3s-1.3431 3-3 3-3-1.3431-3-3 1.3431-3 3-3z" color="#000" opacity=".41"/><path fill="url(#n)" d="m15 9c-0.277 0-0.5 0.223-0.5 0.5v1.6875c-0.54864 0.14074-1.055 0.37601-1.5312 0.65625l-1.219-1.219c-0.19587-0.19587-0.49163-0.19587-0.6875 0l-1.437 1.437c-0.19587 0.19587-0.19587 0.49163 0 0.6875l1.2188 1.2188c-0.28 0.476-0.516 0.982-0.656 1.531h-1.688c-0.277 0-0.5 0.223-0.5 0.5v2c0 0.277 0.223 0.5 0.5 0.5h1.6875c0.14074 0.54864 0.37601 1.055 0.65625 1.5312l-1.219 1.219c-0.19587 0.19587-0.19587 0.49163 0 0.6875l1.4375 1.4375c0.19587 0.19587 0.49163 0.19587 0.6875 0l1.2188-1.2188c0.47623 0.28024 0.98261 0.51551 1.5312 0.65625v1.6875c0 0.277 0.223 0.5 0.5 0.5h2c0.277 0 0.5-0.223 0.5-0.5v-1.6875c0.54864-0.14074 1.055-0.37601 1.5312-0.65625l1.219 1.219c0.19587 0.19587 0.49163 0.19587 0.6875 0l1.4375-1.4375c0.19587-0.19587 0.19587-0.49163 0-0.6875l-1.22-1.219c0.28-0.476 0.516-0.982 0.656-1.531h1.6875c0.277 0 0.5-0.223 0.5-0.5v-2c0-0.277-0.223-0.5-0.5-0.5h-1.6875c-0.14-0.549-0.376-1.055-0.656-1.531l1.219-1.219c0.19587-0.19587 0.19587-0.49163 0-0.6875l-1.437-1.437c-0.19587-0.19587-0.49163-0.19587-0.6875 0l-1.2188 1.2188c-0.476-0.28-0.982-0.516-1.531-0.656v-1.688c0-0.277-0.223-0.5-0.5-0.5h-2zm1 5c1.6569 0 3 1.3431 3 3s-1.3431 3-3 3-3-1.3431-3-3 1.3431-3 3-3z" color="#000"/><path fill="none" stroke="url(#o)" stroke-linejoin="round" d="m15.062 9.5625c-0.02465 0.61514 0.0508 1.2431-0.0404 1.8499-0.22156 0.48267-0.86813 0.38946-1.2591 0.66131-0.35888 0.1777-0.83286 0.55716-1.2005 0.17633l-1.1562-1.1562-1.3125 1.3125c0.41328 0.43651 0.87815 0.8308 1.2579 1.2948 0.23668 0.48316-0.28717 0.88122-0.39325 1.3266-0.17191 0.37402-0.17866 1.0023-0.7161 1.0335-0.55991 0.0032-1.1199 0.000478-1.6798 0.0014v1.875c0.61514 0.02465 1.2431-0.0508 1.8499 0.0404 0.48267 0.22156 0.38946 0.86813 0.66131 1.2591 0.1777 0.35888 0.55716 0.83286 0.17633 1.2005l-1.1562 1.1562 1.3125 1.3125c0.43651-0.41328 0.8308-0.87815 1.2948-1.2579 0.48316-0.23668 0.88122 0.28717 1.3266 0.39325 0.37402 0.17191 1.0023 0.17866 1.0335 0.7161 0.0032 0.55991 0.000478 1.1199 0.0014 1.6798h1.875c0.02465-0.61514-0.0508-1.2431 0.0404-1.8499 0.22156-0.48267 0.86813-0.38946 1.2591-0.66131 0.35888-0.1777 0.83286-0.55716 1.2005-0.17633l1.1562 1.1562 1.3125-1.3125c-0.41328-0.43651-0.87815-0.8308-1.2579-1.2948-0.23668-0.48316 0.28717-0.88122 0.39325-1.3266 0.17191-0.37402 0.17866-1.0023 0.7161-1.0335 0.55991-0.0032 1.1199-0.000478 1.6798-0.0014v-1.875c-0.61514-0.02465-1.2431 0.0508-1.8499-0.0404-0.482-0.222-0.389-0.869-0.661-1.26-0.177-0.359-0.557-0.833-0.176-1.201l1.1562-1.1562-1.3125-1.3125c-0.43651 0.41328-0.8308 0.87815-1.2948 1.2579-0.48316 0.23668-0.88122-0.28717-1.3266-0.39325-0.37402-0.17191-1.0023-0.17866-1.0335-0.7161-0.0032-0.55991-0.000478-1.1199-0.0014-1.6798h-1.875z" color="#000" opacity=".1"/><path fill="none" stroke="url(#p)" stroke-linejoin="round" d="m16 20.566c1.9374 0.05315 3.6634-1.7201 3.5613-3.6545 0.004-1.9389-1.8147-3.6163-3.7447-3.4659-1.9392 0.04516-3.5671 1.9074-3.3688 3.832 0.10413 1.8114 1.739 3.3229 3.5521 3.2884z" color="#000" opacity=".1"/></svg>