<svg xmlns="http://www.w3.org/2000/svg" xmlns:xlink="http://www.w3.org/1999/xlink" width="32" height="32" version="1.1"><defs><linearGradient id="h" x1="24" x2="24" y1="5.564" y2="43" gradientTransform="matrix(.57063 0 0 .57063 2.3049 3.3049)" gradientUnits="userSpaceOnUse"><stop offset="0" stop-color="#fff"/><stop offset=".036" stop-color="#fff" stop-opacity=".235"/><stop offset=".951" stop-color="#fff" stop-opacity=".157"/><stop offset="1" stop-color="#fff" stop-opacity=".392"/></linearGradient><radialGradient id="m" cx="7.806" cy="9.957" r="12.672" fx="7.276" gradientTransform="matrix(-1.0673e-7 3.4663 -5.3421 -1.0405e-7 69.185 -26.355)" gradientUnits="userSpaceOnUse"><stop offset="0" stop-color="#ffcd7d"/><stop offset=".262" stop-color="#fc8f36"/><stop offset=".705" stop-color="#e23a0e"/><stop offset="1" stop-color="#ac441f"/></radialGradient><linearGradient id="i" x1="25" x2="25" y1="47.935" y2=".918" gradientTransform="matrix(.66015 0 0 .52505 .15636 5.186)" gradientUnits="userSpaceOnUse"><stop offset="0" stop-color="#ba3d12"/><stop offset="1" stop-color="#db6737"/></linearGradient><radialGradient id="k" cx="605.71" cy="486.65" r="117.14" gradientTransform="matrix(.015663 0 0 .0082353 17.61 24.981)" gradientUnits="userSpaceOnUse" xlink:href="#a"/><linearGradient id="a"><stop offset="0"/><stop offset="1" stop-opacity="0"/></linearGradient><radialGradient id="l" cx="605.71" cy="486.65" r="117.14" gradientTransform="matrix(-.015663 0 0 .0082353 14.39 24.981)" gradientUnits="userSpaceOnUse" xlink:href="#a"/><linearGradient id="j" x1="302.86" x2="302.86" y1="366.65" y2="609.51" gradientTransform="matrix(.045769 0 0 .0082353 -.54232 24.981)" gradientUnits="userSpaceOnUse"><stop offset="0" stop-opacity="0"/><stop offset=".5"/><stop offset="1" stop-opacity="0"/></linearGradient></defs><rect width="22.1" height="2" x="4.95" y="28" fill="url(#j)" opacity=".15"/><path fill="url(#l)" d="m4.95 28v1.9999c-0.80662 0.0038-1.95-0.44807-1.95-1.0001 0-0.552 0.90012-0.99982 1.95-0.99982z" opacity=".15"/><path fill="url(#k)" d="m27.05 28v1.9999c0.80661 0.0038 1.95-0.44807 1.95-1.0001 0-0.552-0.90012-0.99982-1.95-0.99982z" opacity=".15"/><path fill="url(#m)" stroke="url(#i)" stroke-linejoin="round" stroke-width=".895" d="m4.4473 5.4473c5.2946 0 23.105 0.00147 23.105 0.00147l0.000029 23.104h-23.105v-23.105z" color="#000"/><path fill="none" stroke="url(#h)" stroke-linecap="round" stroke-linejoin="round" stroke-width=".887" d="m26.557 27.557h-21.113v-21.113h21.113z" opacity=".5"/><path fill="#fff" d="m7.0633 24.902c0-0.30708 0.10601-0.56488 0.31803-0.7734 0.21203-0.2123 0.47138-0.31845 0.77805-0.31846 0.2991 0.000007 0.55277 0.10616 0.76101 0.31846 0.21202 0.20852 0.31803 0.46632 0.31803 0.7734 0 0.29951-0.10601 0.55541-0.31803 0.76771-0.20824 0.20852-0.46191 0.31278-0.76101 0.31277-0.30667 0.000007-0.56603-0.10425-0.77805-0.31277-0.2121-0.209-0.3181-0.465-0.3181-0.768m-0.0633-4.931v1.816c2.3202 0 4.2047 1.8882 4.2047 4.2129h1.8223c0-3.33-2.7035-6.0293-6.027-6.0293zm0.00312-3.9745v2.0078c4.4053 0 7.9822 3.5816 7.9822 7.9928h2.0147c0.000015-5.5219-4.4823-10.001-9.9969-10.001z"/></svg>