<svg xmlns="http://www.w3.org/2000/svg" xmlns:xlink="http://www.w3.org/1999/xlink" width="32" height="32" version="1.1"><defs><linearGradient id="h" x1="16.626" x2="20.055" y1="15.298" y2="24.628" gradientTransform="matrix(.52104 0 0 .81327 3.4707 .35442)" gradientUnits="userSpaceOnUse"><stop offset="0" stop-color="#fff"/><stop offset="1" stop-color="#fff" stop-opacity="0"/></linearGradient><linearGradient id="i" x1="24" x2="24" y1="5" y2="43" gradientTransform="matrix(.62162 0 0 .62162 1.0811 2.0811)" gradientUnits="userSpaceOnUse"><stop offset="0" stop-color="#fff"/><stop offset=".063" stop-color="#fff" stop-opacity=".235"/><stop offset=".951" stop-color="#fff" stop-opacity=".157"/><stop offset="1" stop-color="#fff" stop-opacity=".392"/></linearGradient><radialGradient id="l" cx="7.496" cy="8.45" r="20" gradientTransform="matrix(1.2454e-8 1.4981 -1.5848 -2.76e-8 29.391 -6.3556)" gradientUnits="userSpaceOnUse"><stop offset="0" stop-color="#3e3e3e"/><stop offset=".262" stop-color="#343434"/><stop offset=".705" stop-color="#272727"/><stop offset="1" stop-color="#1d1d1d"/></radialGradient><radialGradient id="j" cx="4.993" cy="43.5" r="2.5" gradientTransform="matrix(2.0038 0 0 1.4 27.988 -17.4)" gradientUnits="userSpaceOnUse"><stop offset="0" stop-color="#181818"/><stop offset="1" stop-color="#181818" stop-opacity="0"/></radialGradient><radialGradient id="k" cx="4.993" cy="43.5" r="2.5" gradientTransform="matrix(2.0038 0 0 1.4 -20.012 -104.4)" gradientUnits="userSpaceOnUse"><stop offset="0" stop-color="#181818"/><stop offset="1" stop-color="#181818" stop-opacity="0"/></radialGradient><linearGradient id="g" x1="25.058" x2="25.058" y1="47.028" y2="39.999" gradientUnits="userSpaceOnUse"><stop offset="0" stop-color="#181818" stop-opacity="0"/><stop offset=".5" stop-color="#181818"/><stop offset="1" stop-color="#181818" stop-opacity="0"/></linearGradient></defs><g><g opacity=".4" transform="matrix(.7 0 0 .33333 -.8 15.333) matrix(1.0526 0 0 1.2857 -1.2632 -13.429)"><rect width="5" height="7" x="38" y="40" fill="url(#j)"/><rect width="5" height="7" x="-10" y="-47" fill="url(#k)" transform="scale(-1)"/><rect width="28" height="7" x="10" y="40" fill="url(#g)"/></g></g><rect width="25" height="25" x="3.5" y="4.5" fill="url(#l)" color="#000"/><rect width="25" height="25" x="3.5" y="4.5" fill="none" stroke="#000" color="#000" opacity=".7"/><rect width="23" height="23" x="4.5" y="5.5" fill="none" stroke="url(#i)" stroke-linecap="round" opacity=".5"/><path fill="url(#h)" fill-rule="evenodd" d="m4 5 0.008 15c0.6904-0.015 23.468-5.529 23.992-5.795v-9.205z" opacity=".1"/><path fill="#fff" d="m16.467 8.0001c-0.53931-0.077588-0.45336 0.42193-0.44484 0.7731-0.0059 4.1692 0.01172 8.3407-0.0088 12.508-0.145 0.32452-0.55212 0.0099-0.80112 0.07215-1.7342-0.05405-3.6017 1.1946-3.847 3.0302-0.25326 1.3789 1.032 2.5932 2.3216 2.6149 1.9178 0.05257 3.5779-1.8787 3.3343-3.8146 0.0065-3.3283-0.01298-6.6593 0.0097-9.9859 0.13139-0.31618 0.4856-0.01847 0.65097 0.09458 1.5212 0.9203 2.8505 2.4463 2.9447 4.3279 0.0815 1.0885-0.14664 2.173-0.46032 3.2072 1.3984-2.3007 1.3227-5.5038-0.40514-7.6054-1.3305-1.3884-2.5797-3.0451-2.8335-5.0311-0.04896-0.18667-0.30655-0.18423-0.46044-0.19158z" color="#000" opacity=".1"/><path d="m16.467 7.0001c-0.53931-0.077588-0.45336 0.42193-0.44484 0.7731-0.0059 4.1692 0.01172 8.3407-0.0088 12.508-0.145 0.32452-0.55212 0.0099-0.80112 0.07215-1.7342-0.05405-3.6017 1.1946-3.847 3.0302-0.25326 1.3789 1.032 2.5932 2.3216 2.6149 1.9178 0.05257 3.5779-1.8787 3.3343-3.8146 0.0065-3.3283-0.01298-6.6593 0.0097-9.9859 0.13139-0.31618 0.4856-0.01847 0.65097 0.09458 1.5212 0.9203 2.8505 2.4463 2.9447 4.3279 0.0815 1.0885-0.14664 2.173-0.46032 3.2072 1.3984-2.3007 1.3227-5.5038-0.40514-7.6054-1.33-1.388-2.58-3.0443-2.833-5.0303-0.049-0.1866-0.307-0.1842-0.461-0.1916z" color="#000" opacity=".9"/></svg>