<svg xmlns="http://www.w3.org/2000/svg" xmlns:xlink="http://www.w3.org/1999/xlink" width="32" height="32" version="1.1"><defs><linearGradient id="k" x1="102.31" x2="102.31" y1="-2.393" y2="-24.582" gradientTransform="matrix(.45813 0 0 .43889 -31.62 14.933)" gradientUnits="userSpaceOnUse" spreadMethod="reflect"><stop offset="0" stop-color="#a5a6a8"/><stop offset="1" stop-color="#e8e8e8"/></linearGradient><linearGradient id="j" x1="109.96" x2="109.96" y1="-24.911" y2="-2.376" gradientTransform="matrix(.45813 0 0 .43889 -31.62 14.933)" gradientUnits="userSpaceOnUse"><stop offset="0" stop-color="#b3b3b3"/><stop offset="1" stop-color="#dadada"/></linearGradient><linearGradient id="i" x1="103.95" x2="89.424" y1="-7.666" y2="-7.666" gradientTransform="matrix(.45783 0 0 .43229 -31.592 18.912)" gradientUnits="userSpaceOnUse" spreadMethod="reflect" xlink:href="#b"/><linearGradient id="b"><stop offset="0" stop-color="#868688"/><stop offset="1" stop-color="#d9d9da"/></linearGradient><linearGradient id="h" x1="89.018" x2="89.018" y1="22.537" y2="27.546" gradientTransform="translate(-78.157 -9.5461)" gradientUnits="userSpaceOnUse" xlink:href="#a"/><linearGradient id="a"><stop offset="0" stop-color="#a0a0a0"/><stop offset="1" stop-color="#4a4a4a"/></linearGradient><linearGradient id="g" x1="103.95" x2="89.424" y1="-7.666" y2="-7.666" gradientTransform="matrix(.45783 0 0 .43229 -31.592 24.912)" gradientUnits="userSpaceOnUse" spreadMethod="reflect" xlink:href="#b"/><linearGradient id="f" x1="89.018" x2="89.018" y1="22.537" y2="27.546" gradientTransform="translate(-78.157 -3.5461)" gradientUnits="userSpaceOnUse" xlink:href="#a"/><linearGradient id="e" x1="103.95" x2="89.424" y1="-7.666" y2="-7.666" gradientTransform="matrix(.45783 0 0 .43229 -31.592 30.912)" gradientUnits="userSpaceOnUse" spreadMethod="reflect" xlink:href="#b"/><linearGradient id="d" x1="89.018" x2="89.018" y1="22.537" y2="27.546" gradientTransform="translate(-78.157 2.4539)" gradientUnits="userSpaceOnUse" xlink:href="#a"/><linearGradient id="l" x1="21.381" x2="21.381" y1="5.053" y2="44.137" gradientTransform="matrix(0.6 0 0 .60526 1.6 2.1711)" gradientUnits="userSpaceOnUse"><stop offset="0" stop-color="#FFF"/><stop offset=".081" stop-color="#FFF" stop-opacity=".235"/><stop offset=".923" stop-color="#FFF" stop-opacity=".157"/><stop offset="1" stop-color="#FFF" stop-opacity=".392"/></linearGradient><radialGradient id="c" cx="23.335" cy="41.636" r="22.627" gradientTransform="matrix(.57452 0 0 .22094 2.5938 17.801)" gradientUnits="userSpaceOnUse"><stop offset="0"/><stop offset="1" stop-opacity="0"/></radialGradient></defs><path fill="url(#c)" fill-rule="evenodd" d="m29 27c0.0011 2.7613-5.8195 5-13 5s-13.001-2.239-13-5c-0.0011-2.761 5.8195-5 13-5s13.001 2.2387 13 5z" opacity=".3"/><g><path fill="url(#e)" stroke="url(#d)" d="m27.49 25.068c0 2.4466-5.1487 4.4322-11.493 4.4322-6.344 0-11.493-1.9856-11.493-4.4322 0.11446-5.4694-1.4047-4.34 11.493-4.4322 13.193-0.0952 11.331-1.1267 11.493 4.4322z"/><path fill="#868688" stroke="#d8d8d8" d="m27.5 21c0 2.4853-5.1487 4.5-11.5 4.5s-11.5-2.0147-11.5-4.5 5.1487-4.5 11.5-4.5 11.5 2.0147 11.5 4.5z"/><path fill="url(#g)" stroke="url(#f)" d="m27.49 19.068c0 2.4466-5.1487 4.4322-11.493 4.4322-6.344 0-11.493-1.9856-11.493-4.4322 0.11446-5.4694-1.4047-4.34 11.493-4.4322 13.193-0.0952 11.331-1.1267 11.493 4.4322z"/><path fill="#868688" stroke="#d8d8d8" d="m27.5 15c0 2.4853-5.1487 4.5-11.5 4.5s-11.5-2.0147-11.5-4.5 5.1487-4.5 11.5-4.5 11.5 2.0147 11.5 4.5z"/><path fill="url(#i)" stroke="url(#h)" d="m27.49 13.068c0 2.446-5.149 4.432-11.493 4.432-6.3435 0-11.492-1.986-11.492-4.432 0.1144-5.4697-1.4047-4.3402 11.492-4.4325 13.193-0.0952 11.331-1.1267 11.493 4.4325z"/><path fill="url(#k)" stroke="url(#j)" d="m27.5 9c0 2.4853-5.1487 4.5-11.5 4.5s-11.5-2.015-11.5-4.5c0-2.4853 5.1487-4.5 11.5-4.5 6.351 0 11.5 2.0147 11.5 4.5z"/></g><rect width="21" height="23" x="5.5" y="5.5" fill="none" stroke="url(#l)" color="#000" opacity=".5" rx="17.5" ry="4"/></svg>