<svg xmlns="http://www.w3.org/2000/svg" xmlns:xlink="http://www.w3.org/1999/xlink" width="32" height="32" version="1.1"><defs><linearGradient id="a"><stop offset="0"/><stop offset="1" stop-opacity="0"/></linearGradient><linearGradient id="g" x1="24" x2="24" y1="5.564" y2="43" gradientTransform="matrix(.56757 0 0 .72973 2.3784 -2.5135)" gradientUnits="userSpaceOnUse"><stop offset="0" stop-color="#fff"/><stop offset=".036" stop-color="#fff" stop-opacity=".235"/><stop offset=".951" stop-color="#fff" stop-opacity=".157"/><stop offset="1" stop-color="#fff" stop-opacity=".392"/></linearGradient><linearGradient id="h" x1="25.132" x2="25.132" y1=".985" y2="47.013" gradientTransform="matrix(.65714 0 0 .63012 .22856 -1.0896)" gradientUnits="userSpaceOnUse"><stop offset="0" stop-color="#f4f4f4"/><stop offset="1" stop-color="#dbdbdb"/></linearGradient><radialGradient id="j" cx="605.71" cy="486.65" r="117.14" gradientTransform="matrix(.015663 0 0 .0082353 17.61 25.981)" gradientUnits="userSpaceOnUse" xlink:href="#a"/><radialGradient id="k" cx="605.71" cy="486.65" r="117.14" gradientTransform="matrix(-.015663 0 0 .0082353 14.39 25.981)" gradientUnits="userSpaceOnUse" xlink:href="#a"/><linearGradient id="i" x1="302.86" x2="302.86" y1="366.65" y2="609.51" gradientTransform="matrix(.045769 0 0 .0082353 -.54232 25.981)" gradientUnits="userSpaceOnUse"><stop offset="0" stop-opacity="0"/><stop offset=".5"/><stop offset="1" stop-opacity="0"/></linearGradient></defs><rect width="22.1" height="2" x="4.95" y="29" fill="url(#i)" opacity=".15"/><path fill="url(#k)" d="m4.95 29v1.9999c-0.80662 0.0038-1.95-0.44807-1.95-1.0001 0-0.552 0.90012-0.99982 1.95-0.99982z" opacity=".15"/><path fill="url(#j)" d="m27.05 29v1.9999c0.80661 0.0038 1.95-0.44807 1.95-1.0001 0-0.552-0.90012-0.99982-1.95-0.99982z" opacity=".15"/><path fill="url(#h)" d="m4.5 0.49996c5.2705 0 23 0.00185 23 0.00185l0.000028 28.998h-23v-29z"/><path fill="none" stroke="url(#g)" stroke-linecap="round" stroke-linejoin="round" d="m26.5 28.5h-21v-27h21z"/><path fill="none" stroke="#000" stroke-linejoin="round" stroke-width="1" d="m4.5 0.49996c5.2705 0 23 0.00185 23 0.00185l0.000028 28.998h-23v-29z" opacity=".3"/></svg>