<svg xmlns="http://www.w3.org/2000/svg" width="32" height="32" version="1.1"><defs><linearGradient id="p" x1="27.557" x2="27.557" y1="7.163" y2="21.387" gradientTransform="matrix(.89186 0 0 1.0539 3.1208 5.4125)" gradientUnits="userSpaceOnUse"><stop offset="0" stop-color="#fff"/><stop offset=".01" stop-color="#fff" stop-opacity=".235"/><stop offset=".99" stop-color="#fff" stop-opacity=".157"/><stop offset="1" stop-color="#fff" stop-opacity=".392"/></linearGradient><linearGradient id="o" x1="22.935" x2="22.809" y1="49.629" y2="36.658" gradientTransform="matrix(.74675 0 0 .65549 -1.9219 3.1676)" gradientUnits="userSpaceOnUse"><stop offset="0" stop-color="#0a0a0a" stop-opacity=".498"/><stop offset="1" stop-color="#0a0a0a" stop-opacity="0"/></linearGradient><linearGradient id="n" x1="35.793" x2="35.793" y1="17.118" y2="43.761" gradientTransform="matrix(.64444 0 0 .64286 .53352 .89286)" gradientUnits="userSpaceOnUse"><stop offset="0" stop-color="#b4cee1"/><stop offset="1" stop-color="#5d9fcd"/></linearGradient><linearGradient id="m" x1="302.86" x2="302.86" y1="366.65" y2="609.51" gradientTransform="matrix(.051143 0 0 .015916 -2.49 22.299)" gradientUnits="userSpaceOnUse"><stop offset="0" stop-opacity="0"/><stop offset=".5"/><stop offset="1" stop-opacity="0"/></linearGradient><radialGradient id="q" cx="605.71" cy="486.65" r="117.14" gradientTransform="matrix(.019836 0 0 .015916 16.388 22.299)" gradientUnits="userSpaceOnUse"><stop offset="0"/><stop offset="1" stop-opacity="0"/></radialGradient><radialGradient id="r" cx="605.71" cy="486.65" r="117.14" gradientTransform="matrix(-.019836 0 0 .015916 15.601 22.299)" gradientUnits="userSpaceOnUse"><stop offset="0"/><stop offset="1" stop-opacity="0"/></radialGradient><linearGradient id="l" x1="21.37" x2="21.37" y1="4.732" y2="34.143" gradientTransform="matrix(.54384 0 0 .61466 3.2689 5.0911)" gradientUnits="userSpaceOnUse"><stop offset="0" stop-color="#fff"/><stop offset=".111" stop-color="#fff" stop-opacity=".235"/><stop offset=".99" stop-color="#fff" stop-opacity=".157"/><stop offset="1" stop-color="#fff" stop-opacity=".392"/></linearGradient><linearGradient id="k" x1="62.989" x2="62.989" y1="13" y2="16" gradientTransform="matrix(.61905 0 0 .61905 -30.392 1.4286)" gradientUnits="userSpaceOnUse"><stop offset="0" stop-color="#f9f9f9"/><stop offset="1" stop-color="#d8d8d8"/></linearGradient><linearGradient id="j" x1="-51.786" x2="-51.786" y1="53.514" y2="3.634" gradientTransform="matrix(.50703 0 0 .503 68.029 1.3298)" gradientUnits="userSpaceOnUse"><stop offset="0" stop-opacity=".322"/><stop offset="1" stop-opacity=".278"/></linearGradient></defs><path fill="none" stroke="url(#j)" d="m4.0002 6.5001c-0.43342 0.005-0.5 0.21723-0.5 0.6349v1.365c-1.2457 0-1-0.002-1 0.54389 0.0216 6.5331 0 6.9014 0 7.4561 0.90135 0 27-2.349 27-3.36v-4.0961c0-0.41767-0.34799-0.54876-0.78141-0.54389h-14.219v-1.365c0-0.41767-0.26424-0.63977-0.69767-0.6349h-9.8023z" color="#000" opacity=".8"/><path fill="url(#k)" d="m4.0002 7v2h-1v4h26v-4h-15v-2h-10z" color="#000"/><path fill="none" stroke="url(#l)" stroke-linecap="round" d="m4.5002 7.5v2h-1v4h25v-4h-15v-2h-9z" color="#000"/><g transform="translate(.00017936 -1)"><rect width="24.695" height="3.865" x="3.647" y="28.135" fill="url(#m)" opacity=".3"/><path fill="url(#q)" d="m28.342 28.135v3.865c1.0215 0.0073 2.4695-0.86596 2.4695-1.9328s-1.1399-1.9323-2.4695-1.9323z" opacity=".3"/><path fill="url(#r)" d="m3.6472 28.135v3.865c-1.0215 0.0073-2.4695-0.86596-2.4695-1.9328s1.1399-1.9323 2.4695-1.9323z" opacity=".3"/></g><path fill="url(#n)" d="m1.927 11.5c-0.69105 0.0796-0.32196 0.90258-0.37705 1.3654 0.0802 0.29906 0.59771 15.718 0.59771 16.247 0 0.46018 0.22667 0.38222 0.80101 0.38222h26.397c0.61872 0.0143 0.48796 0.007 0.48796-0.38947 0.0452-0.20269 0.63993-16.978 0.66282-17.243 0-0.279 0.0581-0.3621-0.30493-0.3621h-28.265z" color="#000"/><path fill="url(#o)" d="m1.682 13 28.636 0.00027c0.4137 0 0.68181 0.29209 0.68181 0.65523l-0.6735 17.712c0.01 0.45948-0.1364 0.64166-0.61707 0.63203l-27.256-0.0115c-0.4137 0-0.83086-0.27118-0.83086-0.63432l-0.62244-17.698c0-0.36314 0.26812-0.65549 0.68182-0.65549z" opacity=".4"/><path fill="none" stroke="url(#p)" stroke-linecap="round" d="m2.5002 12.5 0.62498 16h25.749l0.62498-16z" color="#000" opacity=".5"/><path fill="none" stroke="#000" stroke-linecap="round" stroke-linejoin="round" d="m1.927 11.5c-0.69105 0.0796-0.32196 0.90258-0.37705 1.3654 0.0802 0.29906 0.59771 15.718 0.59771 16.247 0 0.46018 0.22667 0.38222 0.80101 0.38222h26.397c0.61872 0.0143 0.48796 0.007 0.48796-0.38947 0.0452-0.20269 0.63993-16.978 0.66282-17.243 0-0.279 0.0581-0.3621-0.30493-0.3621h-28.265z" color="#000" opacity=".3"/><path fill="#FFF" d="m16 16 2 2-3 3 2 2 3-3 2 2v-6h-6zm-4 1c-0.554 0-1 0.446-1 1v8c0 0.554 0.446 1 1 1h8c0.554 0 1-0.446 1-1v-3l-1-1v4h-8v-8h4l-1-1h-3z" opacity=".3"/><path d="m16 15 2 2-3 3 2 2 3-3 2 2v-6h-6zm-4 1c-0.554 0-1 0.446-1 1v8c0 0.554 0.446 1 1 1h8c0.554 0 1-0.446 1-1v-3l-1-1v4h-8v-8h4l-1-1h-3z" opacity=".7"/></svg>