<svg xmlns="http://www.w3.org/2000/svg" xmlns:xlink="http://www.w3.org/1999/xlink" width="32" height="32" version="1.1"><defs><linearGradient id="e" x1="27.557" x2="27.557" y1="7.163" y2="21.387" gradientTransform="matrix(.89186 0 0 .86793 3.1207 9.575)" gradientUnits="userSpaceOnUse"><stop offset="0" stop-color="#fff"/><stop offset=".01" stop-color="#fff" stop-opacity=".235"/><stop offset=".99" stop-color="#fff" stop-opacity=".157"/><stop offset="1" stop-color="#fff" stop-opacity=".392"/></linearGradient><linearGradient id="g" x1="22.935" x2="22.809" y1="49.629" y2="36.658" gradientTransform="matrix(.74675 0 0 .55199 -1.922 5.7201)" gradientUnits="userSpaceOnUse"><stop offset="0" stop-color="#0a0a0a" stop-opacity=".498"/><stop offset="1" stop-color="#0a0a0a" stop-opacity="0"/></linearGradient><linearGradient id="f" x1="35.793" x2="35.793" y1="17.118" y2="43.761" gradientTransform="matrix(.64444 0 0 .54135 .53343 5.4887)" gradientUnits="userSpaceOnUse"><stop offset="0" stop-color="#b4cee1"/><stop offset="1" stop-color="#5d9fcd"/></linearGradient><linearGradient id="i" x1="302.86" x2="302.86" y1="366.65" y2="609.51" gradientTransform="matrix(.051143 0 0 .015916 -2.49 22.299)" gradientUnits="userSpaceOnUse"><stop offset="0" stop-opacity="0"/><stop offset=".5"/><stop offset="1" stop-opacity="0"/></linearGradient><radialGradient id="b" cx="605.71" cy="486.65" r="117.14" gradientTransform="matrix(.019836 0 0 .015916 16.388 22.299)" gradientUnits="userSpaceOnUse"><stop offset="0"/><stop offset="1" stop-opacity="0"/></radialGradient><radialGradient id="a" cx="605.71" cy="486.65" r="117.14" gradientTransform="matrix(-.019836 0 0 .015916 15.601 22.299)" gradientUnits="userSpaceOnUse"><stop offset="0"/><stop offset="1" stop-opacity="0"/></radialGradient><linearGradient id="c" x1="21.37" x2="21.37" y1="4.732" y2="34.143" gradientTransform="matrix(.54384 0 0 .61466 3.2688 5.0911)" gradientUnits="userSpaceOnUse"><stop offset="0" stop-color="#fff"/><stop offset=".111" stop-color="#fff" stop-opacity=".235"/><stop offset=".99" stop-color="#fff" stop-opacity=".157"/><stop offset="1" stop-color="#fff" stop-opacity=".392"/></linearGradient><linearGradient id="d" x1="62.989" x2="62.989" y1="17.47" y2="20.47" gradientTransform="matrix(.61905 0 0 .61905 -30.392 1.4286)" gradientUnits="userSpaceOnUse"><stop offset="0" stop-color="#f9f9f9"/><stop offset="1" stop-color="#d8d8d8"/></linearGradient><linearGradient id="h" x1="-51.786" x2="-51.786" y1="53.514" y2="3.634" gradientTransform="matrix(.50703 0 0 0.503 68.029 1.3298)" gradientUnits="userSpaceOnUse"><stop offset="0" stop-opacity=".322"/><stop offset="1" stop-opacity=".278"/></linearGradient></defs><g><path fill="none" stroke="url(#h)" d="m4.0001 6.5001c-0.43342 0.005-0.5 0.21723-0.5 0.6349v1.365c-1.2457 0-1-0.002-1 0.54389v9.4561l27-1.36v-8.0961c0-0.41767-0.34799-0.54876-0.78141-0.54389h-14.219v-1.365c0-0.41767-0.26424-0.63977-0.69767-0.6349z" color="#000" opacity=".8"/><path fill="url(#d)" d="m4.0001 7v2h-1v6h26v-6h-15v-2z" color="#000"/><path fill="none" stroke="url(#c)" stroke-linecap="round" d="m4.5001 7.5v2h-1v6h25v-6h-15v-2z" color="#000"/></g><g transform="translate(.00009 -1)"><rect width="24.695" height="3.865" x="3.647" y="28.135" fill="url(#i)" opacity=".3"/><path fill="url(#b)" d="m28.342 28.135v3.865c1.0215 0.0073 2.4695-0.86596 2.4695-1.9328s-1.1399-1.9323-2.4695-1.9323z" opacity=".3"/><path fill="url(#a)" d="m3.6472 28.135v3.865c-1.0215 0.0073-2.4695-0.86596-2.4695-1.9328s1.1399-1.9323 2.4695-1.9323z" opacity=".3"/></g><path fill="url(#f)" d="m0.92644 14.421c-0.69105 0.067-0.32196 0.76007-0.37705 1.1498 0.0802 0.25184 1.5982 13.236 1.5982 13.682 0 0.38752 0.22667 0.32187 0.80101 0.32187h26.397c0.61872 0.012 0.48796 0.006 0.48796-0.32797 0.0452-0.17069 1.6394-14.298 1.6623-14.521 0-0.23495 0.0581-0.30493-0.30493-0.30493h-30.265z" color="#000"/><path fill="url(#g)" d="m0.68182 14 30.636 0.00023c0.4137 0 0.68181 0.24597 0.68181 0.55177l-1.6732 14.915c0.01 0.38693-0.1364 0.54035-0.61707 0.53224l-27.256-0.01c-0.4137 0-0.83086-0.22836-0.83086-0.53417l-1.6231-14.903c0-0.3058 0.26812-0.55199 0.68182-0.55199z" opacity=".4"/><path fill="none" stroke="url(#e)" stroke-linecap="round" stroke-width=".907" d="m1.4999 15.412 1.6252 13.176h25.749l1.6247-13.176z" color="#000" opacity=".5"/><path fill="none" stroke="#000" stroke-linecap="round" stroke-linejoin="round" stroke-width=".918" d="m0.92644 14.421c-0.69105 0.067-0.32196 0.76007-0.37705 1.1498 0.0802 0.25184 1.5982 13.236 1.5982 13.682 0 0.38752 0.22667 0.32187 0.80101 0.32187h26.397c0.61872 0.012 0.48796 0.006 0.48796-0.32797 0.0452-0.17069 1.6394-14.298 1.6623-14.521 0-0.23495 0.0581-0.30493-0.30493-0.30493h-30.265z" color="#000" opacity=".3"/></svg>