<svg xmlns="http://www.w3.org/2000/svg" xmlns:xlink="http://www.w3.org/1999/xlink" width="32" height="32" version="1.0"><defs><radialGradient id="t" cx="605.71" cy="486.65" r="117.14" gradientTransform="matrix(.028917 0 0 .012353 26.973 38.471)" gradientUnits="userSpaceOnUse" xlink:href="#a"/><linearGradient id="a"><stop offset="0"/><stop offset="1" stop-opacity="0"/></linearGradient><radialGradient id="u" cx="605.71" cy="486.65" r="117.14" gradientTransform="matrix(-.028917 0 0 .012353 21.027 38.471)" gradientUnits="userSpaceOnUse" xlink:href="#a"/><linearGradient id="l" x1="302.86" x2="302.86" y1="366.65" y2="609.51" gradientTransform="matrix(.084497 0 0 .012353 -6.5396 38.471)" gradientUnits="userSpaceOnUse"><stop offset="0" stop-opacity="0"/><stop offset=".5"/><stop offset="1" stop-opacity="0"/></linearGradient><linearGradient id="r" x1="16.626" x2="20.055" y1="15.298" y2="24.628" gradientTransform="matrix(.57894 0 0 .65062 2.0784 1.9502)" gradientUnits="userSpaceOnUse"><stop offset="0" stop-color="#fff"/><stop offset="1" stop-color="#fff" stop-opacity="0"/></linearGradient><linearGradient id="o" x1="24" x2="24" y1="5.564" y2="43" gradientTransform="matrix(.77477 0 0 .61261 -2.5946 1.2973)" gradientUnits="userSpaceOnUse"><stop offset="0" stop-color="#fff"/><stop offset=".036" stop-color="#fff" stop-opacity=".235"/><stop offset=".951" stop-color="#fff" stop-opacity=".157"/><stop offset="1" stop-color="#fff" stop-opacity=".392"/></linearGradient><linearGradient id="p" x1="25.132" x2="25.132" y1=".985" y2="47.013" gradientTransform="matrix(.85714 0 0 .52148 -4.5714 2.6844)" gradientUnits="userSpaceOnUse"><stop offset="0" stop-color="#f4f4f4"/><stop offset="1" stop-color="#dbdbdb"/></linearGradient><linearGradient id="q" x1="-51.786" x2="-51.786" y1="50.786" y2="2.906" gradientTransform="matrix(.69214 0 0 .48803 46.352 2.1033)" gradientUnits="userSpaceOnUse"><stop offset="0" stop-color="#a0a0a0"/><stop offset="1" stop-color="#bebebe"/></linearGradient><linearGradient id="m" x1="45.414" x2="45.567" y1="15.27" y2="96.253" gradientTransform="matrix(.32723 0 0 .25356 -38.234 -30.559)" gradientUnits="userSpaceOnUse"><stop offset="0" stop-color="#262626"/><stop offset="1" stop-color="#4d4d4d"/></linearGradient><linearGradient id="n" x1="-24.032" x2="-24.098" y1="-13.091" y2="-40.164" gradientTransform="matrix(.74286 0 0 .74074 1.8384 4.0069)" gradientUnits="userSpaceOnUse"><stop offset="0" stop-color="#1d1d1d"/><stop offset="1"/></linearGradient><linearGradient id="s" x1="149.98" x2="149.98" y1="-104.24" y2="-174.97" gradientTransform="matrix(.28088 0 0 .28276 -22.128 49.806)" gradientUnits="userSpaceOnUse"><stop offset="0" stop-color="#272727"/><stop offset="1" stop-color="#454545"/></linearGradient></defs><g stroke-width=".022" opacity=".4" transform="matrix(.66667 0 0 .66667 0 -1.6667)"><rect width="40.8" height="3" x="3.6" y="43" fill="url(#l)"/><path fill="url(#u)" d="m3.6 43v2.9998c-1.4891 0.006-3.6-0.672-3.6-1.5s1.6618-1.5 3.6-1.5z"/><path fill="url(#t)" d="m44.4 43v2.9998c1.4891 0.0056 3.6-0.67211 3.6-1.5001 0-0.828-1.6618-1.4997-3.6-1.4997z"/></g><path fill="url(#p)" stroke="url(#q)" stroke-linejoin="round" stroke-width=".007" d="m0.99997 4c6.8745 0 30 0.0015 30 0.0015l0.000036 23.999h-30v-24z"/><path fill="none" stroke="url(#o)" stroke-linecap="round" stroke-linejoin="round" stroke-width=".007" d="m30.333 27.333h-28.667v-22.667h28.667z"/><rect width="25.952" height="19.903" x="-29.015" y="-26.012" fill="url(#m)" stroke="url(#n)" stroke-linecap="round" stroke-width=".007" rx="0" ry="0" transform="matrix(-.99999 .0037552 .0024409 -1 0 0)"/><path fill="url(#s)" d="m14.458 9.5417c-0.73638 0-1.3333 1.1939-1.3333 2.6667 0 0.24505 0.01072 0.48294 0.04167 0.70833-0.15826-0.15989-0.30816-0.33156-0.5-0.47917-1.1673-0.89808-2.4885-1.1461-2.9375-0.5625-0.44904 0.58363 0.14525 1.7894 1.3125 2.6875 0.22148 0.1704 0.44175 0.29391 0.66667 0.41667-0.25479 0.03257-0.52266 0.08822-0.79167 0.16667-1.4139 0.41232-2.3937 1.3347-2.1875 2.0417 0.20616 0.70693 1.5236 0.93315 2.9375 0.52083 0.2651-0.07731 0.52042-0.1633 0.75-0.27083-0.05604 0.10202-0.11595 0.20204-0.16667 0.3125-2.7782 2.4796-5.0625 7.2292-5.0625 7.2292l0.95833 0.02083c0.5207-1.25 1.8077-3.994 3.7925-6.293-0.28085 1.1684-0.0992 2.2006 0.5 2.4167 0.69271 0.24982 1.667-0.67708 2.1667-2.0625 0.04494-0.12462 0.06976-0.25209 0.10417-0.375 0.05396 0.11891 0.10152 0.23517 0.16667 0.35417 0.70727 1.2918 1.8124 2.062 2.4583 1.7083 0.64591-0.35364 0.58227-1.6874-0.125-2.9792-0.04035-0.07369-0.08227-0.13821-0.125-0.20833 0.07835 0.02437 0.14794 0.04131 0.22917 0.0625 1.4251 0.37181 2.7308 0.10836 2.9167-0.60417 0.18591-0.71253-0.82495-1.5865-2.25-1.9583-0.02183-0.0057-0.04073-0.01544-0.0625-0.02083 0.01921-0.01078 0.04331-0.0098 0.0625-0.02083 1.2754-0.73638 2.014-1.8623 1.6458-2.5-0.36819-0.63772-1.7037-0.54888-2.9792 0.1875-0.40854 0.23587-0.74162 0.50638-1.0208 0.79167 0.10589-0.38234 0.16667-0.82364 0.16667-1.2917 0-1.4728-0.59695-2.6667-1.3333-2.6667zm0.042 4.4583c0.92048 0 1.6667 0.74619 1.6667 1.6667 0 0.92047-0.74619 1.6667-1.6667 1.6667-0.92048 0-1.6667-0.74619-1.6667-1.6667 0-0.921 0.747-1.667 1.667-1.667z" color="#000"/><path fill="#d2d2d2" d="m14.458 10.188c-0.73638 0-1.3333 1.1939-1.3333 2.6667 0 0.24504 0.01072 0.48294 0.04167 0.70833-0.15826-0.15989-0.30816-0.33156-0.5-0.47917-1.1673-0.89808-2.4885-1.1461-2.9375-0.5625-0.44904 0.58363 0.14525 1.7894 1.3125 2.6875 0.22148 0.1704 0.44175 0.29391 0.66667 0.41667-0.25479 0.03257-0.52266 0.08822-0.79167 0.16667-1.4139 0.41232-2.3937 1.3347-2.1875 2.0417 0.20616 0.70693 1.5236 0.93315 2.9375 0.52083 0.2651-0.07731 0.52042-0.1633 0.75-0.27083-0.05604 0.10202-0.11595 0.20204-0.16667 0.3125-2.7782 2.479-5.0625 7.229-5.0625 7.229l0.95833 0.02083c0.52039-1.2493 1.8073-3.9927 3.7917-6.2917-0.28085 1.1684-0.0992 2.2006 0.5 2.4167 0.69271 0.24982 1.667-0.67708 2.1667-2.0625 0.04494-0.12462 0.06976-0.25209 0.10417-0.375 0.05396 0.11891 0.10152 0.23517 0.16667 0.35417 0.70727 1.2918 1.8124 2.062 2.4583 1.7083 0.64591-0.35364 0.58227-1.6874-0.125-2.9792-0.04035-0.07369-0.08227-0.13821-0.125-0.20833 0.07835 0.02437 0.14794 0.04131 0.22917 0.0625 1.4251 0.37181 2.7308 0.10836 2.9167-0.60417 0.18591-0.71253-0.82495-1.5865-2.25-1.9583-0.02183-0.0057-0.04073-0.01544-0.0625-0.02083 0.01921-0.01078 0.04331-0.0098 0.0625-0.02083 1.2754-0.73638 2.014-1.8623 1.6458-2.5-0.36819-0.63772-1.7037-0.54888-2.9792 0.1875-0.40854 0.23587-0.74162 0.50638-1.0208 0.79167 0.10589-0.38234 0.16667-0.82364 0.16667-1.2917 0-1.4728-0.59695-2.6667-1.3333-2.6667zm0.042 4.458c0.92048 0 1.6667 0.74619 1.6667 1.6667 0 0.92048-0.74619 1.6667-1.6667 1.6667-0.92048 0-1.6667-0.74619-1.6667-1.6667 0-0.92048 0.74619-1.6667 1.6667-1.6667z"/><path fill="url(#r)" fill-rule="evenodd" d="m2.6667 5.6667 0.0087 12c0.7672-0.012 26.076-4.424 26.658-4.636l-0.000092-7.3644z" opacity=".15"/></svg>