<svg xmlns="http://www.w3.org/2000/svg" xmlns:xlink="http://www.w3.org/1999/xlink" width="32" height="32" version="1.1"><defs><linearGradient id="i" x1="24" x2="24" y1="5.564" y2="43" gradientTransform="matrix(.56757 0 0 .72973 2.3784 -2.5135)" gradientUnits="userSpaceOnUse"><stop offset="0" stop-color="#fff"/><stop offset=".036" stop-color="#fff" stop-opacity=".235"/><stop offset=".951" stop-color="#fff" stop-opacity=".157"/><stop offset="1" stop-color="#fff" stop-opacity=".392"/></linearGradient><linearGradient id="j" x1="25.132" x2="25.132" y1=".985" y2="47.013" gradientTransform="matrix(.65714 0 0 .63012 .22856 -1.0896)" gradientUnits="userSpaceOnUse"><stop offset="0" stop-color="#f4f4f4"/><stop offset="1" stop-color="#dbdbdb"/></linearGradient><linearGradient id="k" x1="-51.786" x2="-51.786" y1="50.786" y2="2.906" gradientTransform="matrix(.53064 0 0 .58970 39.27 -1.7919)" gradientUnits="userSpaceOnUse"><stop offset="0" stop-color="#a0a0a0"/><stop offset="1" stop-color="#bebebe"/></linearGradient><radialGradient id="n" cx="605.71" cy="486.65" r="117.14" gradientTransform="matrix(.015663 0 0 .0082353 17.61 25.981)" gradientUnits="userSpaceOnUse" xlink:href="#a"/><linearGradient id="a"><stop offset="0"/><stop offset="1" stop-opacity="0"/></linearGradient><radialGradient id="o" cx="605.71" cy="486.65" r="117.14" gradientTransform="matrix(-.015663 0 0 .0082353 14.39 25.981)" gradientUnits="userSpaceOnUse" xlink:href="#a"/><linearGradient id="l" x1="302.86" x2="302.86" y1="366.65" y2="609.51" gradientTransform="matrix(.045769 0 0 .0082353 -.54232 25.981)" gradientUnits="userSpaceOnUse"><stop offset="0" stop-opacity="0"/><stop offset=".5"/><stop offset="1" stop-opacity="0"/></linearGradient><linearGradient id="m" x1="28.534" x2="16.887" y1="24.24" y2="13.664" gradientTransform="matrix(.65943 0 0 .64652 -27.821 1.2237)" gradientUnits="userSpaceOnUse"><stop offset="0" stop-color="#fda852"/><stop offset="1" stop-color="#fff" stop-opacity="0"/></linearGradient></defs><rect width="22.1" height="2" x="4.95" y="29" fill="url(#l)" opacity=".15"/><path fill="url(#o)" d="m4.95 29v1.9999c-0.80662 0.0038-1.95-0.44807-1.95-1.0001 0-0.552 0.90012-0.99982 1.95-0.99982z" opacity=".15"/><path fill="url(#n)" d="m27.05 29v1.9999c0.80661 0.0038 1.95-0.44807 1.95-1.0001 0-0.552-0.90012-0.99982-1.95-0.99982z" opacity=".15"/><path fill="url(#j)" stroke="url(#k)" stroke-linejoin="round" stroke-width="1" d="m4.5 0.49996c5.2705 0 23 0.00185 23 0.00185l0.000028 28.998h-23v-29z"/><path fill="none" stroke="url(#i)" stroke-linecap="round" stroke-linejoin="round" d="m26.5 28.5h-21v-27h21z"/><g transform="translate(27.788 -2.3184)"><path fill="url(#m)" fill-rule="evenodd" stroke="#ea541a" stroke-width="1" d="m-17.037 24.229c2.7541 1.8316 8.7672-0.61882 3.7681-7.1764-4.9538-6.4982 4.9219-10.76 7.8525-3.2453"/><rect width="2" height="2" x="-18.788" y="22.818" fill="#ea541a"/><rect width="2" height="2" x="-6.788" y="12.818" fill="#ea541a"/><path fill="none" stroke="#ea541a" stroke-width="1" d="m-17.699 11.147 9.5001 12.316"/><path fill="#e6e6e6" stroke="#ea541a" d="m-16.288 11.318c0.000372 0.55218-0.44745 1-1 1s-1.0004-0.44782-1-1c-0.000372-0.55218 0.44745-1 1-1s1.0004 0.44782 1 1z"/><path fill="#e6e6e6" stroke="#ea541a" d="m-7.288 23.318c0.000373 0.55218-0.44745 1-1 1s-1.0004-0.44782-1-1c-0.000372-0.55218 0.44745-1 1-1s1.0004 0.44782 1 1z"/><rect width="2" height="2" x="-14.788" y="15.818" fill="#ea541a"/></g></svg>