<svg xmlns="http://www.w3.org/2000/svg" xmlns:xlink="http://www.w3.org/1999/xlink" width="32" height="32" version="1.1"><defs><radialGradient id="c" cx="14" cy="4.918" r="2" gradientTransform="matrix(1.0912 -1.8502e-8 3.75e-8 1.5923 7.2228 -4.4685)" gradientUnits="userSpaceOnUse" spreadMethod="reflect"><stop offset="0" stop-color="#FFF"/><stop offset="1" stop-color="#8f8f8f"/></radialGradient><radialGradient id="b" cx="14" cy="4.918" r="2" gradientTransform="matrix(1.0912 -1.8502e-8 3.75e-8 1.5923 -5.7772 -4.4685)" gradientUnits="userSpaceOnUse" spreadMethod="reflect"><stop offset="0" stop-color="#FFF"/><stop offset="1" stop-color="#8f8f8f"/></radialGradient><linearGradient id="l" x1="24" x2="24" y1="5" y2="43" gradientTransform="matrix(0.6 0 0 .64185 1.6 -16.779)" gradientUnits="userSpaceOnUse"><stop offset="0" stop-color="#FFF"/><stop offset=".063" stop-color="#FFF" stop-opacity=".235"/><stop offset=".951" stop-color="#FFF" stop-opacity=".157"/><stop offset="1" stop-color="#FFF" stop-opacity=".392"/></linearGradient><linearGradient id="k" x1="24" x2="24" y1="5" y2="43" gradientTransform="matrix(.62162 0 0 .62162 1.0811 2.0811)" gradientUnits="userSpaceOnUse"><stop offset="0" stop-color="#FFF"/><stop offset=".063" stop-color="#FFF" stop-opacity=".235"/><stop offset=".951" stop-color="#FFF" stop-opacity=".157"/><stop offset="1" stop-color="#FFF" stop-opacity=".392"/></linearGradient><radialGradient id="a" cx="7.496" cy="8.45" r="20" gradientTransform="matrix(0 .90633 -1.9732 -3.8244e-8 32.673 -1.9201)" gradientUnits="userSpaceOnUse"><stop offset="0" stop-color="#f89b7e"/><stop offset=".262" stop-color="#e35d4f"/><stop offset=".661" stop-color="#c6262e"/><stop offset="1" stop-color="#690b2c"/></radialGradient><linearGradient id="j" x1="24" x2="24" y1="44" y2="3.899" gradientTransform="matrix(.64103 0 0 .64103 .61538 1.6154)" gradientUnits="userSpaceOnUse"><stop offset="0" stop-color="#791235"/><stop offset="1" stop-color="#dd3b27"/></linearGradient><linearGradient id="i" x1="23.954" x2="23.954" y1="15.999" y2="18.684" gradientTransform="matrix(.65 0 0 0.5 0.4 4)" gradientUnits="userSpaceOnUse"><stop offset="0"/><stop offset="1" stop-opacity="0"/></linearGradient><linearGradient id="h" x1="19.36" x2="19.36" y1="16.138" y2="44.984" gradientTransform="matrix(.64103 0 0 .64185 .61538 .95838)" gradientUnits="userSpaceOnUse"><stop offset="0" stop-color="#f4f4f4"/><stop offset="1" stop-color="#dbdbdb"/></linearGradient><linearGradient id="g" x1="24" x2="24" y1="44" y2="3.89" gradientTransform="matrix(.64103 0 0 .64185 .61538 1.5793)" gradientUnits="userSpaceOnUse"><stop offset="0" stop-color="#787878"/><stop offset="1" stop-color="#AAA"/></linearGradient><radialGradient id="e" cx="4.993" cy="43.5" r="2.5" gradientTransform="matrix(2.0038 0 0 1.4 27.988 -17.4)" gradientUnits="userSpaceOnUse"><stop offset="0" stop-color="#181818"/><stop offset="1" stop-color="#181818" stop-opacity="0"/></radialGradient><radialGradient id="d" cx="4.993" cy="43.5" r="2.5" gradientTransform="matrix(2.0038 0 0 1.4 -20.012 -104.4)" gradientUnits="userSpaceOnUse"><stop offset="0" stop-color="#181818"/><stop offset="1" stop-color="#181818" stop-opacity="0"/></radialGradient><linearGradient id="m" x1="25.058" x2="25.058" y1="47.028" y2="39.999" gradientUnits="userSpaceOnUse"><stop offset="0" stop-color="#181818" stop-opacity="0"/><stop offset=".5" stop-color="#181818"/><stop offset="1" stop-color="#181818" stop-opacity="0"/></linearGradient><linearGradient id="f" x1="24" x2="24" y1="44" y2="3.899" gradientTransform="matrix(.64103 0 0 .64103 .61538 .61538)" gradientUnits="userSpaceOnUse"><stop offset="0" stop-color="#791235"/><stop offset="1" stop-color="#dd3b27"/></linearGradient></defs><path fill="none" stroke="url(#f)" stroke-linecap="round" stroke-linejoin="round" d="m5.5 3.5c7.0683 0.00685 14.137-0.013705 21.205 0.010288 1.238 0.083322 1.9649 1.3578 1.7949 2.5045l-24.99-0.7199c0.081-0.9961 0.9903-1.8161 1.9897-1.7949z" color="#000"/><g><g opacity=".4" transform="matrix(0.7 0 0 .33333 -0.8 15.333) matrix(1.0526 0 0 1.2857 -1.2632 -13.429)"><rect width="5" height="7" x="38" y="40" fill="url(#e)"/><rect width="5" height="7" x="-10" y="-47" fill="url(#d)" transform="scale(-1)"/><rect width="28" height="7" x="10" y="40" fill="url(#m)"/></g></g><g><path fill="url(#h)" stroke="url(#g)" stroke-linecap="round" stroke-linejoin="round" d="m28.5 7.0148s0.0137 13.794-0.01029 20.69c-0.084 1.238-1.358 1.965-2.505 1.795-6.896-0.007-13.794 0.014-20.69-0.01-1.238-0.084-1.9649-1.358-1.7949-2.505 0.0068-6.896 0.0103-20.69 0.0103-20.69z" color="#000"/><rect width="26" height="2" x="3" y="12" fill="url(#i)" opacity=".3" rx="0" ry="0"/><path fill="url(#a)" stroke="url(#j)" stroke-linecap="round" stroke-linejoin="round" d="m5.5 4.5c7.0683 0.00685 14.137-0.013705 21.205 0.010288 1.238 0.083322 1.9649 1.3578 1.7949 2.5045l0.073 4.4852h-25.073l0.0103-5.2051c0.081-0.9961 0.9903-1.8161 1.9897-1.7949z" color="#000"/></g><rect width="23" height="23" x="4.5" y="5.5" fill="none" stroke="url(#k)" stroke-linecap="round" stroke-linejoin="round" opacity=".5" rx="1" ry="1"/><path fill="none" stroke="url(#l)" stroke-linecap="square" stroke-linejoin="round" d="m26.5 10.5h-21" opacity=".5"/><g><rect width="3" height="7.06" x="8" y="2.94" fill="#FFF" opacity=".4" rx="1.809" ry="1.53"/><rect width="3" height="2.765" x="8" y="6.235" fill="#cc3429" rx="1.587" ry="1.587"/><rect width="3" height="7" x="8" y="1.019" fill="url(#b)" rx="1.809" ry="1.391"/><rect width="3" height="7.06" x="21" y="2.94" fill="#FFF" opacity=".4" rx="1.809" ry="1.53"/><rect width="3" height="2.765" x="21" y="6.235" fill="#cc3429" rx="1.587" ry="1.587"/><rect width="3" height="7" x="21" y="1.019" fill="url(#c)" rx="1.809" ry="1.391"/></g><rect width="19.876" height="3.948" x="6.123" y="14.023" fill="#c5c5c5" color="#000"/><path fill="none" stroke="#000" stroke-linecap="round" stroke-linejoin="round" d="m6.5182 14.553 18.987 0.011-0.09 11.941-18.986-0.011zm0.33122 8.8955 18.622 0.01098m-18.89-2.957 18.622 0.01098m-18.532-14.898 18.622 0.011m-3.6545-2.8956-0.0893 11.828m-2.9014-11.783-0.0893 11.828m-2.902-11.917-0.089 11.827m-2.9014-11.783-0.0893 11.828m-2.8347-11.839-0.0893 11.828" color="#000" opacity=".3"/></svg>