<svg xmlns="http://www.w3.org/2000/svg" xmlns:xlink="http://www.w3.org/1999/xlink" width="32" height="32.002" version="1.1"><defs><linearGradient id="n" x1="25" x2="25" y1="43" y2="14" gradientTransform="translate(0 -.00046093)" gradientUnits="userSpaceOnUse" xlink:href="#b"/><linearGradient id="b"><stop offset="0" stop-color="#FFF"/><stop offset="1" stop-color="#FFF" stop-opacity="0"/></linearGradient><linearGradient id="m" x1="30" x2="30" y1="9.983" y2="28.585" gradientTransform="translate(0 -.00046093)" gradientUnits="userSpaceOnUse" xlink:href="#b"/><radialGradient id="f" cx="7.806" cy="9.957" r="12.672" fx="7.276" gradientTransform="matrix(-1.6167e-7 6.6019 -8.0922 -1.9817e-7 104.56 -60.073)" gradientUnits="userSpaceOnUse"><stop offset="0" stop-color="#90dbec"/><stop offset=".262" stop-color="#55c1ec"/><stop offset=".705" stop-color="#3689e6"/><stop offset="1" stop-color="#2b63a0"/></radialGradient><linearGradient id="l" x1="25" x2="25" y1="47.935" y2=".918" gradientTransform="translate(0 -.00046093)" gradientUnits="userSpaceOnUse"><stop offset="0" stop-color="#185f9a"/><stop offset="1" stop-color="#599ec9"/></linearGradient><radialGradient id="e" cx="15.116" cy="63.965" r="12.289" gradientTransform="matrix(1.1392 0 0 .40687 6.78 7.7466)" gradientUnits="userSpaceOnUse"><stop offset="0"/><stop offset="1" stop-opacity="0"/></radialGradient><linearGradient id="k" x1="21.253" x2="21.253" y1="44.301" y2=".505" gradientTransform="translate(0 .99954)" gradientUnits="userSpaceOnUse"><stop offset="0" stop-color="#AAA"/><stop offset="1" stop-color="#c8c8c8"/></linearGradient><linearGradient id="h" x1="24" x2="24" y1="5.564" y2="43" gradientTransform="matrix(.89189 0 0 1.1351 2.5946 -4.7432)" gradientUnits="userSpaceOnUse"><stop offset="0" stop-color="#FFF"/><stop offset=".036" stop-color="#FFF" stop-opacity=".235"/><stop offset=".951" stop-color="#FFF" stop-opacity=".157"/><stop offset="1" stop-color="#FFF" stop-opacity=".392"/></linearGradient><linearGradient id="j" x1="25.132" x2="25.132" y1=".985" y2="47.013" gradientTransform="matrix(1 0 0 .95617 -1e-7 -1.9149)" gradientUnits="userSpaceOnUse"><stop offset="0" stop-color="#f4f4f4"/><stop offset="1" stop-color="#dbdbdb"/></linearGradient><linearGradient id="i" x1="-51.786" x2="-51.786" y1="50.786" y2="2.906" gradientTransform="matrix(.80750 0 0 .89483 59.41 -2.9806)" gradientUnits="userSpaceOnUse"><stop offset="0" stop-color="#a0a0a0"/><stop offset="1" stop-color="#bebebe"/></linearGradient><radialGradient id="d" cx="605.71" cy="486.65" r="117.14" gradientTransform="matrix(.023040 0 0 0.0147 26.361 37.04)" gradientUnits="userSpaceOnUse" xlink:href="#a"/><linearGradient id="a"><stop offset="0"/><stop offset="1" stop-opacity="0"/></linearGradient><radialGradient id="c" cx="605.71" cy="486.65" r="117.14" gradientTransform="matrix(-.023040 0 0 0.0147 21.623 37.04)" gradientUnits="userSpaceOnUse" xlink:href="#a"/><linearGradient id="g" x1="302.86" x2="302.86" y1="366.65" y2="609.51" gradientTransform="matrix(.067325 0 0 0.0147 -.34114 37.04)" gradientUnits="userSpaceOnUse"><stop offset="0" stop-opacity="0"/><stop offset=".5"/><stop offset="1" stop-opacity="0"/></linearGradient></defs><g><g transform="matrix(.66667 0 0 .66667 0 .0018413)"><rect width="32.508" height="3.57" x="7.738" y="42.43" fill="url(#g)" opacity=".3"/><path fill="url(#c)" d="m7.7378 42.43v3.5699c-1.1865 0.0067-2.8684-0.79982-2.8684-1.7852 0-0.98533 1.324-1.7847 2.8684-1.7847z" opacity=".3"/><path fill="url(#d)" d="m40.246 42.43v3.5699c1.1865 0.0067 2.8684-0.79982 2.8684-1.7852 0-0.98533-1.324-1.7847-2.8684-1.7847z" opacity=".3"/></g><path fill="url(#j)" stroke="url(#i)" stroke-linejoin="round" stroke-width="1" d="m6.5 0.4972c8.02 0 35 0.0028 35 0.0028l0.000042 44.003h-35v-44.006z" transform="matrix(.66667 0 0 .66667 0 .0018413)"/><path fill="none" stroke="url(#h)" stroke-linecap="round" stroke-linejoin="round" d="m40.5 43.5h-33v-42h33z" transform="matrix(.66667 0 0 .66667 0 .0018413)"/><path fill="url(#k)" d="m11 6.9995v1h2.375v-1zm2.6875 0v1h2.25v-1zm2.5625 0v1h1.9688v-1zm2.2812 0v1h0.875v-1zm1.1875 0v1h1.9375v-1zm2.2812 0v1h5v-1zm-11 2v1h3.7812v-1zm4.1562 0v1h1.8125v-1zm2.1562 0v1h0.84375v-1zm1.2188 0v1h1.625v-1zm2 0v1h1.625v-1zm1.9688 0v1h2.6562v-1zm3.0312 0v1h3.4688v-1zm-16.904 2.0005v1h4.1875v-1zm4.5 0v1h4.5v-1zm-4.5 2v1h2.3125v-1zm2.625 0v1h2.1562v-1zm2.4688 0v1h1.9062v-1zm-5.0938 3v1h3.0625v-1zm3.4062 0v1h5.5938v-1zm-3.4062 2v1h3.0938v-1zm3.4375 0v1h5.0938v-1c-2.793 2.816-6.7194 8.5464-5.0938 0zm5.4688 0v1h1.9062v-1zm2.2188 0v1h1.9062v-1zm2.2188 0v1h2.75v-1zm3.0938 0v1h0.5625v-1zm-16.438 3v1h2.3438v-1zm0 2v1h1v-1zm0 2v1h2.75v-1zm9 0v1h2.3438v-1zm2.6562 0v1h2.1875v-1zm2.5 0v1h1.8438v-1zm-14.156 2v1h2.9375v-1zm9 0v1h1.875v-1zm2.1875 0v1h4.8125v-1zm5.125 0v1h3.6875v-1zm-16.312 2v1h2.5312v-1zm9 0v1h2.4375v-1zm2.7812 0v1h4.2812v-1zm4.5938 0v1h2.9375v-1zm-16.376 2.156v0.96875h2.2188v-0.96875zm2.5625 0v0.96875h2.125v-0.96875zm-2.562 2.844v1h4.2812v-1zm4.625 0v1h4.5938v-1zm11.75 0v1h2.9688v-1zm3.2812 0v1h1.1562v-1zm1.5 0v1h0.6875v-1zm1 0v1h1.8438v-1zm-22.156 2v1h3.6875v-1zm3.9688 0v1h1.7812v-1zm2.1562 0v1h0.8125v-1zm1.0312 0v1h1.625v-1zm1.875 0v1h1.625v-1zm2.125 0v1h2.5938v-1zm2.9062 0v1h3.375v-1zm3.8438 0v1h2.2812v-1zm2.5625 0v1h0.53125v-1zm-20.469 2v1h3.0312v-1zm3.3438 0v1h3.3438v-1zm5.5938 0v1h2.4375v-1zm2.75 0v1h2.25v-1zm2.5938 0v1h1.9375v-1zm2.25 0v1h3.0938v-1zm3.4375 0v1h5.0312v-1z" transform="matrix(.66667 0 0 .66667 0 .0018413)"/><path fill="url(#e)" d="m38 33.772c0.002 2.762-6.267 5.001-14 5.001s-14.002-2.239-14-5.001c-0.0015-2.762 6.267-5.001 14-5.001 7.7331 0 14.002 2.2392 14 5.001z" opacity=".3" transform="matrix(.66667 0 0 .66667 0 .0018413)"/><g stroke-linecap="square"><path fill="url(#f)" stroke="url(#l)" stroke-linejoin="round" d="m24 10.5c-6.9 0-12.5 5.6-12.5 12.5s5.6 12.5 12.5 12.5c5.1254 0 10-3.5 11.553-8h-5.536c-1.3314 1.7506-3.794 3-6.0175 3-4.14 0-7.5-3.36-7.5-7.5-0.000002-4.14 3.36-7.5 7.5-7.5 2.6674 0 5.1835 1.9004 6.5132 4h4.9491c-0.46238-4.5-5.9604-9-11.462-9z" transform="matrix(.66667 0 0 .66667 0 .0018413)"/><path fill="none" stroke="url(#m)" d="m34.125 17.937c-1.85-3.7875-5.876-6.4337-10.125-6.375-4.4493-0.06217-8.7511 2.7592-10.485 6.8537-1.8453 4.1071-0.95053 9.2567 2.2024 12.479 2.1403 2.3057 5.2836 3.5679 8.4064 3.5424" opacity=".5" transform="matrix(.66667 0 0 .66667 0 .0018413)"/><path fill="none" stroke="url(#n)" d="m23.561 14.448c-4.0197 0.13299-7.6119 3.4686-8.0541 7.4638-0.56609 3.8529 1.8882 7.8464 5.5554 9.1288 3.0106 1.1697 7.3287 0.17216 9.3618-2.5497h4.5763" opacity=".5" transform="matrix(.66667 0 0 .66667 0 .0018413)"/></g></g></svg>