<svg xmlns="http://www.w3.org/2000/svg" xmlns:xlink="http://www.w3.org/1999/xlink" width="32" height="32" version="1.1"><defs><linearGradient id="h" x1="24" x2="24" y1="5.564" y2="43" gradientTransform="matrix(.56757 0 0 .72973 2.3784 -2.5135)" gradientUnits="userSpaceOnUse"><stop offset="0" stop-color="#fff"/><stop offset=".036" stop-color="#fff" stop-opacity=".235"/><stop offset=".951" stop-color="#fff" stop-opacity=".157"/><stop offset="1" stop-color="#fff" stop-opacity=".392"/></linearGradient><linearGradient id="i" x1="25.132" x2="25.132" y1=".985" y2="47.013" gradientTransform="matrix(.65714 0 0 .63012 .22856 -1.0896)" gradientUnits="userSpaceOnUse"><stop offset="0" stop-color="#f4f4f4"/><stop offset="1" stop-color="#dbdbdb"/></linearGradient><linearGradient id="j" x1="-51.786" x2="-51.786" y1="50.786" y2="2.906" gradientTransform="matrix(.53064 0 0 .58970 39.27 -1.7919)" gradientUnits="userSpaceOnUse"><stop offset="0" stop-color="#a0a0a0"/><stop offset="1" stop-color="#bebebe"/></linearGradient><radialGradient id="l" cx="605.71" cy="486.65" r="117.14" gradientTransform="matrix(.015663 0 0 .0082353 17.61 25.981)" gradientUnits="userSpaceOnUse" xlink:href="#a"/><linearGradient id="a"><stop offset="0"/><stop offset="1" stop-opacity="0"/></linearGradient><radialGradient id="m" cx="605.71" cy="486.65" r="117.14" gradientTransform="matrix(-.015663 0 0 .0082353 14.39 25.981)" gradientUnits="userSpaceOnUse" xlink:href="#a"/><linearGradient id="k" x1="302.86" x2="302.86" y1="366.65" y2="609.51" gradientTransform="matrix(.045769 0 0 .0082353 -.54232 25.981)" gradientUnits="userSpaceOnUse"><stop offset="0" stop-opacity="0"/><stop offset=".5"/><stop offset="1" stop-opacity="0"/></linearGradient></defs><rect width="22.1" height="2" x="4.95" y="29" fill="url(#k)" opacity=".15"/><path fill="url(#m)" d="m4.95 29v1.9999c-0.80662 0.0038-1.95-0.44807-1.95-1.0001 0-0.552 0.90012-0.99982 1.95-0.99982z" opacity=".15"/><path fill="url(#l)" d="m27.05 29v1.9999c0.80661 0.0038 1.95-0.44807 1.95-1.0001 0-0.552-0.90012-0.99982-1.95-0.99982z" opacity=".15"/><path fill="url(#i)" stroke="url(#j)" stroke-linejoin="round" stroke-width="1" d="m4.5 0.49996c5.2705 0 23 0.00185 23 0.00185l0.000028 28.998h-23v-29z"/><path fill="none" stroke="url(#h)" stroke-linecap="round" stroke-linejoin="round" d="m26.5 28.5h-21v-27h21z"/><g fill="#fff"><rect width="1.241" height="8.839" x="23.867" y="14.363" fill-rule="evenodd" color="#000" opacity=".6" transform="matrix(1 0 -.42525 .90508 0 0)"/><path d="m23.142 16.907-2.939-3.68 0.979-1.227 3.818 4.907-3.919 5.093-1.081-1.12 3.142-3.973z" opacity=".6"/><path d="m8.8581 16.907 2.9389-3.68-0.979-1.227-3.818 4.907 3.919 5.093 1.081-1.12-3.1419-3.973z" opacity=".6"/></g><path fill="#666" d="m8.8581 15.907 2.9389-3.68-0.979-1.227-3.818 4.907 3.919 5.093 1.081-1.12-3.1419-3.973z" opacity=".4"/><rect width="1.241" height="8.839" x="23.397" y="13.259" fill-rule="evenodd" color="#000" opacity=".4" transform="matrix(1 0 -.42525 .90508 0 0)"/><path fill="#666" d="m23.142 15.907-2.939-3.68 0.979-1.227 3.818 4.907-3.919 5.093-1.081-1.12 3.142-3.973z" opacity=".4"/></svg>