<svg xmlns="http://www.w3.org/2000/svg" xmlns:xlink="http://www.w3.org/1999/xlink" width="32" height="32" version="1.1"><defs><radialGradient id="h" cx="4.993" cy="43.5" r="2.5" gradientTransform="matrix(1.603 0 0 0.6 541.99 860.76)" gradientUnits="userSpaceOnUse" xlink:href="#b"/><linearGradient id="b"><stop offset="0"/><stop offset="1" stop-opacity="0"/></linearGradient><radialGradient id="g" cx="4.993" cy="43.5" r="2.5" gradientTransform="matrix(1.603 0 0 0.6 -535.01 -912.96)" gradientUnits="userSpaceOnUse" xlink:href="#b"/><linearGradient id="u" x1="25.058" x2="25.058" y1="43.544" y2="39.999" gradientTransform="matrix(.82143 0 0 .42857 518.79 868.22)" gradientUnits="userSpaceOnUse" spreadMethod="reflect" xlink:href="#b"/><radialGradient id="f" cx="7.496" cy="8.45" r="20" gradientTransform="matrix(-.0095987 1.5579 -1.4869 -.024192 551.14 849.78)" gradientUnits="userSpaceOnUse"><stop offset="0" stop-color="#f8b17e"/><stop offset=".262" stop-color="#e35d4f"/><stop offset=".661" stop-color="#c6262e"/><stop offset="1" stop-color="#690b54"/></radialGradient><linearGradient id="t" x1="547" x2="547" y1="887.36" y2="860.36" gradientUnits="userSpaceOnUse" xlink:href="#e"/><linearGradient id="e" x1="24" x2="24" y1="44" y2="3.899" gradientTransform="matrix(2.641 0 0 2.641 .61539 -60.385)" gradientUnits="userSpaceOnUse"><stop offset="0" stop-color="#791235"/><stop offset="1" stop-color="#bf1d09"/></linearGradient><linearGradient id="s" x1="24" x2="24" y1="5" y2="43" gradientTransform="matrix(.37838 0 0 .64865 529.42 858.29)" gradientUnits="userSpaceOnUse" xlink:href="#c"/><linearGradient id="c" x1="24" x2="24" y1="5.33" y2="43" gradientTransform="matrix(2.7297 0 0 2.7297 -1.5135 -62.513)" gradientUnits="userSpaceOnUse"><stop offset="0" stop-color="#FFF"/><stop offset=".03" stop-color="#FFF" stop-opacity=".235"/><stop offset=".961" stop-color="#FFF" stop-opacity=".157"/><stop offset="1" stop-color="#FFF" stop-opacity=".392"/></linearGradient><linearGradient id="r" x1="24" x2="24" y1="5" y2="43" gradientTransform="matrix(.10811 0 0 .64865 524.91 858.29)" gradientUnits="userSpaceOnUse" xlink:href="#c"/><linearGradient id="q" x1="526" x2="532" y1="812.36" y2="812.36" gradientTransform="matrix(0.8 0 0 0.8 -1306.1 -122.39)" gradientUnits="userSpaceOnUse" xlink:href="#a"/><linearGradient id="a"><stop offset="0" stop-color="#FFF"/><stop offset="1" stop-color="#FFF" stop-opacity="0"/></linearGradient><linearGradient id="p" x1="526" x2="532" y1="812.36" y2="812.36" gradientTransform="matrix(0.8 0 0 0.8 -1300.1 -122.39)" gradientUnits="userSpaceOnUse" xlink:href="#a"/><linearGradient id="o" x1="526" x2="532" y1="812.36" y2="812.36" gradientTransform="matrix(0.8 0 0 0.8 -1294.1 -122.39)" gradientUnits="userSpaceOnUse" xlink:href="#a"/><linearGradient id="n" x1="526" x2="532" y1="812.36" y2="812.36" gradientTransform="matrix(0.8 0 0 0.8 -1288.1 -122.39)" gradientUnits="userSpaceOnUse" xlink:href="#a"/><linearGradient id="m" x1="24" x2="24" y1="5" y2="43" gradientTransform="matrix(-.10811 0 0 .64865 552.09 858.29)" gradientUnits="userSpaceOnUse" xlink:href="#c"/><linearGradient id="l" x1="526" x2="532" y1="812.36" y2="812.36" gradientTransform="matrix(0.8 0 0 0.8 -1306.1 -1199.4)" gradientUnits="userSpaceOnUse" xlink:href="#a"/><linearGradient id="k" x1="526" x2="532" y1="812.36" y2="812.36" gradientTransform="matrix(0.8 0 0 0.8 -1300.1 -1199.4)" gradientUnits="userSpaceOnUse" xlink:href="#a"/><linearGradient id="j" x1="526" x2="532" y1="812.36" y2="812.36" gradientTransform="matrix(0.8 0 0 0.8 -1294.1 -1199.4)" gradientUnits="userSpaceOnUse" xlink:href="#a"/><linearGradient id="i" x1="526" x2="532" y1="812.36" y2="812.36" gradientTransform="matrix(0.8 0 0 0.8 -1288.1 -1199.4)" gradientUnits="userSpaceOnUse" xlink:href="#a"/><linearGradient id="d" x1="598.77" x2="598.77" y1="475.7" y2="448.3" gradientUnits="userSpaceOnUse" xlink:href="#e"/></defs><g><g transform="translate(0 -1020.4) translate(-523 163)"><rect width="4" height="3" x="550" y="885.36" fill="url(#h)" opacity=".4"/><rect width="4" height="3" x="-527" y="-888.36" fill="url(#g)" opacity=".4" transform="scale(-1)"/><rect width="23" height="3" x="527" y="885.36" fill="url(#u)" opacity=".4"/><g stroke-linecap="round"><rect width="16" height="26" x="530.5" y="860.86" fill="url(#f)" stroke="url(#t)" stroke-linejoin="round" color="#000"/><rect width="14" height="24" x="531.5" y="861.86" fill="none" stroke="url(#s)" stroke-linejoin="round" opacity=".5"/><path fill-opacity=".784" stroke="#000" d="m525.5 860.86c-0.554 0-1 0.446-1 1v24c0 0.554 0.446 1 1 1h5v-26h-5zm1 3h1 1v2h-2v-2zm0 6h2v2h-2v-2zm0 6h2v2h-2v-2zm0 6h2v2h-1-1v-2z" color="#000"/></g><g fill="none"><path stroke="url(#r)" stroke-linecap="round" d="m525.5 861.86v24h1 3v-3-18-3h-3-1z" opacity=".3"/><g stroke-linejoin="round"><rect width="4" height="4" x="-884.86" y="525.5" stroke="url(#q)" opacity=".12" rx="1" ry="1" transform="rotate(-90)"/><rect width="4" height="4" x="-878.86" y="525.5" stroke="url(#p)" opacity=".12" rx="1" ry="1" transform="rotate(-90)"/><rect width="4" height="4" x="-872.86" y="525.5" stroke="url(#o)" opacity=".12" rx="1" ry="1" transform="rotate(-90)"/><rect width="4" height="4" x="-866.86" y="525.5" stroke="url(#n)" opacity=".12" rx="1" ry="1" transform="rotate(-90)"/></g></g><g><g fill-rule="evenodd"><rect width="3" height="3" x="526" y="863.36" opacity=".4" rx="1" ry="1"/><rect width="3" height="3" x="526" y="869.36" opacity=".4" rx="1" ry="1"/><rect width="3" height="3" x="526" y="875.36" opacity=".4" rx="1" ry="1"/><rect width="3" height="3" x="526" y="881.36" opacity=".4" rx="1" ry="1"/></g><path fill-opacity=".784" stroke="#000" stroke-linecap="round" d="m551.5 860.86c0.554 0 1 0.446 1 1v24c0 0.554-0.446 1-1 1h-5v-26h5zm-1 3h-1-1v2h2v-2zm0 6h-2v2h2v-2zm0 6h-2v2h2v-2zm0 6h-2v2h1 1v-2z" color="#000"/></g><g fill="none"><path stroke="url(#m)" stroke-linecap="round" d="m551.5 861.86v24h-1-3v-3-18-3h3 1z" opacity=".3"/><g stroke-linejoin="round"><rect width="4" height="4" x="-884.86" y="-551.5" stroke="url(#l)" opacity=".12" rx="1" ry="1" transform="matrix(0,-1,-1,0,0,0)"/><rect width="4" height="4" x="-878.86" y="-551.5" stroke="url(#k)" opacity=".12" rx="1" ry="1" transform="matrix(0,-1,-1,0,0,0)"/><rect width="4" height="4" x="-872.86" y="-551.5" stroke="url(#j)" opacity=".12" rx="1" ry="1" transform="matrix(0,-1,-1,0,0,0)"/><rect width="4" height="4" x="-866.86" y="-551.5" stroke="url(#i)" opacity=".12" rx="1" ry="1" transform="matrix(0,-1,-1,0,0,0)"/></g></g><g fill-rule="evenodd"><rect width="3" height="3" x="-551" y="863.36" opacity=".4" rx="1" ry="1" transform="scale(-1,1)"/><rect width="3" height="3" x="-551" y="869.36" opacity=".4" rx="1" ry="1" transform="scale(-1,1)"/><rect width="3" height="3" x="-551" y="875.36" opacity=".4" rx="1" ry="1" transform="scale(-1,1)"/><rect width="3" height="3" x="-551" y="881.36" opacity=".4" rx="1" ry="1" transform="scale(-1,1)"/></g><path fill="url(#d)" fill-rule="evenodd" stroke="url(#d)" stroke-linejoin="round" stroke-width="2.269" d="m599.62 474.79v-25.573l22.14 12.78z" opacity=".32" transform="matrix(.45152 0 0 .43013 262.76 675.64)"/><path fill="#fafafa" fill-rule="evenodd" stroke="#FFF" stroke-linejoin="round" stroke-width="2.805" d="m599.62 474.79v-25.573l22.14 12.78z" transform="matrix(.36122 0 0 .35193 317.91 710.77)"/></g></g></svg>