<svg xmlns="http://www.w3.org/2000/svg" xmlns:xlink="http://www.w3.org/1999/xlink" width="32" height="32" version="1.1"><defs><linearGradient id="f" x1="24" x2="24" y1="5.564" y2="43" gradientTransform="matrix(.66892 0 0 .72973 1.8209 -2.5135)" gradientUnits="userSpaceOnUse"><stop offset="0" stop-color="#FFF"/><stop offset=".036" stop-color="#FFF" stop-opacity=".235"/><stop offset=".951" stop-color="#FFF" stop-opacity=".157"/><stop offset="1" stop-color="#FFF" stop-opacity=".392"/></linearGradient><radialGradient id="b" cx="7.806" cy="9.957" r="12.672" fx="7.276" gradientTransform="matrix(-1.1779e-7 4.3522 -5.8956 -1.3064e-7 75.942 -39.435)" gradientUnits="userSpaceOnUse"><stop offset="0" stop-color="#90dbec"/><stop offset=".262" stop-color="#55c1ec"/><stop offset=".705" stop-color="#3689e6"/><stop offset="1" stop-color="#2b63a0"/></radialGradient><linearGradient id="i" x1="21.982" x2="21.982" y1="36.042" y2="6.042" gradientTransform="translate(-2.9821 -6.0421)" gradientUnits="userSpaceOnUse"><stop offset="0" stop-color="#AAA"/><stop offset="1" stop-color="#c8c8c8"/></linearGradient><linearGradient id="h" x1="24" x2="24" y1="5.564" y2="43" gradientTransform="matrix(.56757 0 0 .72973 2.3784 -2.5135)" gradientUnits="userSpaceOnUse"><stop offset="0" stop-color="#FFF"/><stop offset=".036" stop-color="#FFF" stop-opacity=".235"/><stop offset=".951" stop-color="#FFF" stop-opacity=".157"/><stop offset="1" stop-color="#FFF" stop-opacity=".392"/></linearGradient><linearGradient id="g" x1="25.132" x2="25.132" y1=".985" y2="47.013" gradientTransform="matrix(.65714 0 0 .63012 .22856 -1.0896)" gradientUnits="userSpaceOnUse"><stop offset="0" stop-color="#f4f4f4"/><stop offset="1" stop-color="#dbdbdb"/></linearGradient><radialGradient id="d" cx="605.71" cy="486.65" r="117.14" gradientTransform="matrix(.015663 0 0 .0082353 17.61 25.981)" gradientUnits="userSpaceOnUse" xlink:href="#a"/><linearGradient id="a"><stop offset="0"/><stop offset="1" stop-opacity="0"/></linearGradient><radialGradient id="c" cx="605.71" cy="486.65" r="117.14" gradientTransform="matrix(-.015663 0 0 .0082353 14.39 25.981)" gradientUnits="userSpaceOnUse" xlink:href="#a"/><linearGradient id="e" x1="302.86" x2="302.86" y1="366.65" y2="609.51" gradientTransform="matrix(.045769 0 0 .0082353 -.54232 25.981)" gradientUnits="userSpaceOnUse"><stop offset="0" stop-opacity="0"/><stop offset=".5"/><stop offset="1" stop-opacity="0"/></linearGradient></defs><g><rect width="22.1" height="2" x="4.95" y="29" fill="url(#e)" opacity=".15"/><path fill="url(#c)" d="m4.95 29v1.9999c-0.80662 0.0038-1.95-0.44807-1.95-1.0001 0-0.552 0.90012-0.99982 1.95-0.99982z" opacity=".15"/><path fill="url(#d)" d="m27.05 29v1.9999c0.80661 0.0038 1.95-0.44807 1.95-1.0001 0-0.552-0.90012-0.99982-1.95-0.99982z" opacity=".15"/></g><path fill="url(#g)" d="m4.5 0.49996c5.2705 0 23 0.00185 23 0.00185l0.000028 28.998h-23v-29z"/><path fill="none" stroke="url(#h)" stroke-linecap="round" stroke-linejoin="round" d="m26.5 28.5h-21v-27h21z"/><path fill="none" stroke="url(#i)" stroke-width="1" d="m11 5.505h1.3436zm1.6874 0h2.1875zm2.5312 0h1.9375zm2.25 0h0.84375zm1.1875 0h1.875zm2.25 0h3.0938zm-9.9061 2h2.6561zm3.0624 0h1.75zm2.0625 0h0.875zm1.2188 0h1.5938zm1.9375 0h1.625zm1.9375 0h2.5938zm-10.219 1.995h3.2811zm3.6249 0h4.625zm4.9375 0h1.8438zm-9.906 2h1.5938zm1.0936 0h5.9062zm-1.0936 3.0372h2.0936zm2.4061 0h5.0625zm5.375 0h2.4688zm2.7812 0h2.3125zm-10.562 1.963h1.3436zm1.6874 0h2.1562zm2.5312 0h1.9375zm2.25 0h0.84375zm1.1875 0h1.875zm2.25 0h3.0938zm-9.9061 2.0753h3.2811zm3.6249 0h4.625zm4.9375 0h1.8438zm-8.562 2.925h2.0936zm2.4061 0h5.0625zm5.375 0h2.4688zm-7.7811 2h2.8749zm3.2186 0h1.2188zm1.5312 0h2.7812zm3.0938 0h4.0938zm-7.8436 2h2.8749zm3.2186 0h1.75zm2.0625 0h2.75zm3.0625 0h2.9688z"/><path fill="url(#b)" d="m8.0261 29.5h-3.3605c-0.31067-0.34338-0.074432-1.0251-0.14825-1.5112v-27.322l0.043327-0.11794 0.10492-0.048698h3.3084" color="#000"/><path fill="none" stroke="url(#f)" stroke-linejoin="round" d="m8.5 28.5h-3v-27h3" opacity=".5"/><path fill="none" stroke="#000" stroke-linejoin="round" stroke-width="1" d="m4.5 0.49996c5.2705 0 23 0.00185 23 0.00185l0.000028 28.998h-23v-29z" opacity=".3"/></svg>