<svg xmlns="http://www.w3.org/2000/svg" xmlns:xlink="http://www.w3.org/1999/xlink" width="32" height="32" version="1.1"><defs><linearGradient id="a"><stop offset="0"/><stop offset="1" stop-opacity="0"/></linearGradient><linearGradient id="q" x1="24" x2="24" y1="3.554" y2="43" gradientTransform="matrix(.72973 0 0 .56757 -1.5146 3.3784)" gradientUnits="userSpaceOnUse"><stop offset="0" stop-color="#FFF"/><stop offset=".113" stop-color="#FFF" stop-opacity=".235"/><stop offset=".951" stop-color="#FFF" stop-opacity=".157"/><stop offset="1" stop-color="#FFF" stop-opacity=".392"/></linearGradient><linearGradient id="p" x1="25.132" x2="25.132" y1=".985" y2="47.013" gradientTransform="matrix(.82857 0 0 .49975 -3.8857 4.2392)" gradientUnits="userSpaceOnUse"><stop offset="0" stop-color="#f4f4f4"/><stop offset="1" stop-color="#dbdbdb"/></linearGradient><linearGradient id="o" x1="-51.786" x2="-51.786" y1="50.786" y2="2.906" gradientTransform="matrix(.66907 0 0 .46769 45.34 3.6823)" gradientUnits="userSpaceOnUse"><stop offset="0" stop-color="#a0a0a0"/><stop offset="1" stop-color="#bebebe"/></linearGradient><radialGradient id="d" cx="605.71" cy="486.65" r="117.14" gradientTransform="matrix(.019278 0 0 .0082353 17.982 24.981)" gradientUnits="userSpaceOnUse" xlink:href="#a"/><radialGradient id="c" cx="605.71" cy="486.65" r="117.14" gradientTransform="matrix(-.019278 0 0 .0082353 14.018 24.981)" gradientUnits="userSpaceOnUse" xlink:href="#a"/><linearGradient id="n" x1="302.86" x2="302.86" y1="366.65" y2="609.51" gradientTransform="matrix(.056331 0 0 .0082353 -4.3598 24.981)" gradientUnits="userSpaceOnUse"><stop offset="0" stop-opacity="0"/><stop offset=".5"/><stop offset="1" stop-opacity="0"/></linearGradient><linearGradient id="m" x1="24" x2="24" y1="5.564" y2="43" gradientTransform="matrix(.66892 0 0 .56757 -1.179 3.3784)" gradientUnits="userSpaceOnUse"><stop offset="0" stop-color="#FFF"/><stop offset=".036" stop-color="#FFF" stop-opacity=".235"/><stop offset=".951" stop-color="#FFF" stop-opacity=".157"/><stop offset="1" stop-color="#FFF" stop-opacity=".392"/></linearGradient><radialGradient id="b" cx="7.806" cy="9.957" r="12.672" fx="7.276" gradientTransform="matrix(-1.3251e-7 3.4517 -6.6326 -1.0361e-7 81.872 -26.173)" gradientUnits="userSpaceOnUse"><stop offset="0" stop-color="#f9c590"/><stop offset=".397" stop-color="#f19860"/><stop offset="1" stop-color="#ce5d36"/></radialGradient><linearGradient id="l" x1="25" x2="25" y1="47.935" y2=".918" gradientTransform="matrix(.81963 0 0 .52284 -3.8316 5.2358)" gradientUnits="userSpaceOnUse"><stop offset="0" stop-color="#71171c"/><stop offset="1" stop-color="#ed8137"/></linearGradient><clipPath id="r"><path fill="#FFF" d="m10.751-0.72642 19.105 0.025195v10.481l-19.105-0.025202z" color="#000"/></clipPath><linearGradient id="k" x1="22.004" x2="22.004" y1="63.218" y2="25.647" gradientTransform="matrix(1.3394 0 0 -1.9826 -11.198 94.863)" gradientUnits="userSpaceOnUse"><stop offset="0" stop-color="#AAA"/><stop offset="1" stop-color="#c8c8c8"/></linearGradient><linearGradient id="j" x1="25.132" x2="25.132" y1="15.285" y2="37.546" gradientTransform="matrix(1.0813 0 0 .62485 -6.1735 -3.6471)" gradientUnits="userSpaceOnUse"><stop offset="0" stop-color="#f4f4f4"/><stop offset="1" stop-color="#dbdbdb"/></linearGradient><linearGradient id="i" x1="-51.786" x2="-51.786" y1="41.798" y2="17.555" gradientTransform="matrix(.87314 0 0 .58477 58.066 -4.3435)" gradientUnits="userSpaceOnUse"><stop offset="0" stop-color="#AAA"/><stop offset="1" stop-color="#c8c8c8"/></linearGradient><linearGradient id="h" x1="24" x2="24" y1="14.203" y2="35.721" gradientTransform="matrix(1.0821 0 0 .61449 -5.648 -2.5358)" gradientUnits="userSpaceOnUse"><stop offset="0" stop-color="#FFF"/><stop offset="1" stop-color="#FFF" stop-opacity="0"/></linearGradient><linearGradient id="g" x1="25.132" x2="25.132" y1="15.285" y2="37.546" gradientTransform="matrix(1 0 0 .95617 -.49906 -2.93)" gradientUnits="userSpaceOnUse"><stop offset="0" stop-color="#f4f4f4"/><stop offset="1" stop-color="#dbdbdb"/></linearGradient><linearGradient id="f" x1="-51.786" x2="-51.786" y1="41.798" y2="17.555" gradientTransform="matrix(.80750 0 0 .89483 58.911 -3.9957)" gradientUnits="userSpaceOnUse"><stop offset="0" stop-color="#AAA"/><stop offset="1" stop-color="#c8c8c8"/></linearGradient><linearGradient id="e" x1="24" x2="24" y1="14.203" y2="35.721" gradientTransform="matrix(1.0351 0 0 .98662 -.70292 -2.17)" gradientUnits="userSpaceOnUse"><stop offset="0" stop-color="#FFF"/><stop offset="1" stop-color="#FFF" stop-opacity="0"/></linearGradient></defs><g><rect width="27.2" height="2" x="2.4" y="28" fill="url(#n)" opacity=".15"/><path fill="url(#c)" d="m2.4 28v1.9999c-0.9928 0.004-2.4-0.448-2.4-1s1.1078-1 2.4-1z" opacity=".15"/><path fill="url(#d)" d="m29.6 28v1.9999c0.99276 0.0038 2.4-0.44808 2.4-1.0001 0-0.552-1.1078-0.99982-2.4-0.99982z" opacity=".15"/></g><g stroke-linejoin="round" clip-path="url(#r)" opacity=".5" transform="matrix(1.6122 0 0 1.1261 -16.324 -7.0129)"><path fill="url(#g)" stroke="url(#f)" stroke-width=".742" d="m13.531 7.5891h13.037v24.901h-13.037z" color="#000"/><path fill="none" stroke="url(#e)" stroke-width=".742" d="m14.31 9.4115h11.413v22.194h-11.413z" color="#000" opacity=".6"/></g><g stroke-linejoin="round" stroke-width="1"><path fill="url(#j)" stroke="url(#i)" d="m3.5 2.5 25 0.037621v16.962h-24.859z" color="#000" opacity=".75" transform="translate(0,1)"/><path fill="none" stroke="url(#h)" d="m4.5 3.5 23 0.016517-0.11298 14.984h-22.701z" color="#000" opacity=".45" transform="translate(0,1)"/></g><g><path fill="url(#p)" stroke="url(#o)" stroke-linejoin="round" stroke-width="1" d="m1.5 5.5c6.6454 0 29 0.00149 29 0.00149l0.000036 22.999h-29v-23z"/><path fill="none" stroke="url(#q)" stroke-linecap="round" d="m29.5 27.5h-27v-21h27z"/><path fill="url(#b)" stroke="url(#l)" stroke-linejoin="round" d="m6 28.5h-4.3138c-0.3495-0.27233-0.083736-0.81302-0.16678-1.1986v-21.669l0.048743-0.093529 0.11803-0.038626h4.2551" color="#000"/></g><g fill="none"><path stroke="url(#m)" stroke-linecap="round" stroke-linejoin="round" d="m5.5 27.5h-3v-21h3" opacity=".5"/><g stroke="#AAA" stroke-width="1"><path d="m11 8.5h4"/><path d="m16 8.5h2"/><path d="m19 8.5h1"/><path d="m21 8.5h2"/></g></g><g><path fill="#FFF" d="m34.75 25.813a3.8795 3.8795 0 1 1 -2.0522 -3.4222l-1.8273 3.4222z" color="#000" opacity=".4" transform="matrix(1.1415 0 0 1.1415 -13.519 -19.587) matrix(1.5701 0 0 1.5701 -16.478 -6.8527)"/><path d="m34.75 25.813a3.8795 3.8795 0 1 1 -2.0522 -3.4222l-1.8273 3.4222z" color="#000" opacity=".15" transform="matrix(1.1415 0 0 1.1415 -13.519 -19.587) matrix(1.5701 0 0 1.5701 -16.478 -7.6015)"/></g><path fill="url(#k)" d="m7.1562 25v-1h2.2188v1zm2.6562 0v-1h6.3438v1zm-2.6562-4v-1h2.9688v1zm3.7188 0v-1h2.3438v1zm2.9375 0v-1h1.1875v1zm-6.6562-4v-1h3.2812v1zm3.875 0v-1h1.6562v1zm2.2188 0v-1h1.75v1zm-6.0938-4v-1h3.2812v1zm3.9062 0v-1h2.3438v1z" color="#000" style="block-progression:tb;text-indent:0;text-transform:none"/></svg>