<svg xmlns="http://www.w3.org/2000/svg" xmlns:xlink="http://www.w3.org/1999/xlink" width="32" height="32" version="1.1"><defs><linearGradient id="j" x1="24" x2="24" y1="5.564" y2="43" gradientTransform="matrix(.56757 0 0 .72973 2.3784 -2.5135)" gradientUnits="userSpaceOnUse"><stop offset="0" stop-color="#FFF"/><stop offset=".036" stop-color="#FFF" stop-opacity=".235"/><stop offset=".951" stop-color="#FFF" stop-opacity=".157"/><stop offset="1" stop-color="#FFF" stop-opacity=".392"/></linearGradient><linearGradient id="i" x1="25.132" x2="25.132" y1=".985" y2="47.013" gradientTransform="matrix(.65714 0 0 .63012 .22856 -1.0896)" gradientUnits="userSpaceOnUse"><stop offset="0" stop-color="#f4f4f4"/><stop offset="1" stop-color="#dbdbdb"/></linearGradient><linearGradient id="h" x1="-51.786" x2="-51.786" y1="50.786" y2="2.906" gradientTransform="matrix(.53064 0 0 .58970 39.27 -1.7919)" gradientUnits="userSpaceOnUse"><stop offset="0" stop-color="#a0a0a0"/><stop offset="1" stop-color="#bebebe"/></linearGradient><radialGradient id="d" cx="605.71" cy="486.65" r="117.14" gradientTransform="matrix(.015663 0 0 .0082353 17.61 25.981)" gradientUnits="userSpaceOnUse" xlink:href="#a"/><linearGradient id="a"><stop offset="0"/><stop offset="1" stop-opacity="0"/></linearGradient><radialGradient id="c" cx="605.71" cy="486.65" r="117.14" gradientTransform="matrix(-.015663 0 0 .0082353 14.39 25.981)" gradientUnits="userSpaceOnUse" xlink:href="#a"/><linearGradient id="e" x1="302.86" x2="302.86" y1="366.65" y2="609.51" gradientTransform="matrix(.045769 0 0 .0082353 -.54232 25.981)" gradientUnits="userSpaceOnUse"><stop offset="0" stop-opacity="0"/><stop offset=".5"/><stop offset="1" stop-opacity="0"/></linearGradient><linearGradient id="b"><stop offset="0" stop-color="#a3c0d0"/><stop offset="1" stop-color="#5a8caa"/></linearGradient><linearGradient id="g" x1="19.515" x2="19.515" y1="12.443" y2="46.562" gradientTransform="matrix(.66298 0 0 .53532 -.83153 1.3896)" gradientUnits="userSpaceOnUse" xlink:href="#b"/><linearGradient id="f" x1="19.515" x2="19.515" y1="12.443" y2="46.562" gradientTransform="matrix(.53480 0 0 .65680 2.2155 -.57398)" gradientUnits="userSpaceOnUse" xlink:href="#b"/></defs><g><rect width="22.1" height="2" x="4.95" y="29" fill="url(#e)" opacity=".15"/><path fill="url(#c)" d="m4.95 29v1.9999c-0.80662 0.0038-1.95-0.44807-1.95-1.0001 0-0.552 0.90012-0.99982 1.95-0.99982z" opacity=".15"/><path fill="url(#d)" d="m27.05 29v1.9999c0.80661 0.0038 1.95-0.44807 1.95-1.0001 0-0.552-0.90012-0.99982-1.95-0.99982z" opacity=".15"/></g><path fill="url(#i)" stroke="url(#h)" stroke-linejoin="round" stroke-width="1" d="m4.5 0.49996c5.2705 0 23 0.00185 23 0.00185l0.000028 28.998h-23v-29z"/><path fill="none" stroke="url(#j)" stroke-linecap="round" stroke-linejoin="round" d="m26.5 28.5h-21v-27h21z"/><path fill="url(#f)" d="m8.5605 7.7356h3.0828v17.645h-3.0828v-17.645z"/><path fill="url(#g)" d="m11 6h12.036v2h-12.036v-2z"/><rect width="3.079" height="2.075" x="8.001" y="5.925" fill="#c0d4df"/><g fill="none"><path stroke="#2c465d" stroke-opacity=".324" d="m15.5 5.5v20"/><path stroke="#6c6c6c" d="m23.333 8.5h-14.667"/><g stroke="#2c465d" stroke-opacity=".324"><path d="m23.334 10.5h-14.667"/><path d="m23.5 13.5h-15"/><path d="m23.5 16.5h-15"/><path d="m23.5 19.5h-15"/></g></g><path fill="#FFF" fill-rule="evenodd" stroke="#FFF" stroke-linecap="square" stroke-linejoin="round" d="m8.5005 6.5093 13.946-0.0186" opacity=".2"/><g fill="none"><path stroke="#6c6c6c" d="m11.5 5.5v20"/><rect width="14.998" height="19.998" x="8.501" y="5.501" stroke="#6c6c6c" stroke-linecap="square" stroke-width="1.002"/><path stroke="#2c465d" stroke-opacity=".324" d="m23.5 22.5h-15"/><path stroke="#2c465d" stroke-opacity=".324" d="m19.5 5.5v20"/></g></svg>