<svg xmlns="http://www.w3.org/2000/svg" xmlns:xlink="http://www.w3.org/1999/xlink" width="16" height="16" version="1.0"><rect width="163.31" height="97.986" x="-62.897" y="-32.993" fill-opacity="0" color="#000"/><g><path d="m2 2v3h3v-3h-3zm4 1v1h8v-1h-8zm-4 3v3h3v-3h-3zm4 1v1h8v-1h-8zm-4 3v3h3v-3h-3zm1 1h1v1h-1v-1zm3 0v1h8v-1h-8z" color="#000" style="block-progression:tb;text-indent:0;text-transform:none"/><path fill="#fff" d="m2 3v3h3v-3h-3zm4 1v1h8v-1h-8zm-4 3v3h3v-3h-3zm4 1v1h8v-1h-8zm-4 3v3h3v-3h-3zm1 1h1v1h-1v-1zm3 0v1h8v-1h-8z" color="#000" style="block-progression:tb;text-indent:0;text-transform:none"/></g></svg>