<svg xmlns="http://www.w3.org/2000/svg" xmlns:xlink="http://www.w3.org/1999/xlink" width="16" height="16" version="1.0"><defs><linearGradient id="a" x1="-41.553" x2="-41.553" y1="2.24" y2="54.703" gradientTransform="matrix(.21864 0 0 .26685 18.619 -19.598)" gradientUnits="userSpaceOnUse"><stop offset="0"/><stop offset="1" stop-color="#363636"/></linearGradient></defs><rect width="163.31" height="97.986" x="-62.897" y="-32.993" fill-opacity="0" color="#000"/><g><path fill="#fff" d="m3.3501-17.998c-0.19747 0.03825-0.35355 0.23333-0.35 0.43744v13.123c0.0000047 0.22904 0.20522 0.43743 0.43077 0.43744h10.139c0.22555-0.000006 0.43076-0.2084 0.43077-0.43744v-10.143c-0.0033-0.06685-0.02179-0.13289-0.05384-0.19138-0.96556-1.3896-2.0351-2.4191-3.3115-3.1988-0.04304-0.01632-0.08869-0.02559-0.13462-0.02734h-7.0695c-0.026843-0.0026-0.053928-0.0026-0.080774 0zm5.6499 2.498c0-0.2357 0.2643-0.5 0.5-0.5h0.5v2h2v0.5c0 0.2357-0.2643 0.5-0.5 0.5h-2c-0.2357 0-0.5-0.2643-0.5-0.5 0-0.46411 0.0000019-1.4917 0.0000019-2z" color="#000" opacity=".6" transform="translate(-3.1069e-8 20)" style="block-progression:tb;text-transform:none;text-indent:0"/><path fill="url(#a)" d="m3.3501-18.998c-0.19747 0.03825-0.35355 0.23333-0.35 0.43744v13.123c0.0000047 0.22904 0.20522 0.43743 0.43077 0.43744h10.139c0.22555-0.000006 0.43076-0.2084 0.43077-0.43744v-10.143c-0.0033-0.06685-0.02179-0.13289-0.05384-0.19138-0.96556-1.3896-2.0351-2.4191-3.3115-3.1988-0.04304-0.01632-0.08869-0.02559-0.13462-0.02734h-7.0695c-0.026843-0.0026-0.053928-0.0026-0.080774 0zm5.6499 2.498c0-0.2357 0.2643-0.5 0.5-0.5h0.5v2h2v0.5c0 0.2357-0.2643 0.5-0.5 0.5h-2c-0.2357 0-0.5-0.2643-0.5-0.5 0-0.46411 0.0000019-1.4917 0.0000019-2z" color="#000" opacity=".7" transform="translate(-3.1069e-8 20)" style="block-progression:tb;text-transform:none;text-indent:0"/></g></svg>