<svg xmlns="http://www.w3.org/2000/svg" xmlns:xlink="http://www.w3.org/1999/xlink" width="16" height="16" version="1.0"><defs><linearGradient id="a" x1="209.34" x2="209.34" y1="998.46" y2="1013.5" gradientUnits="userSpaceOnUse"><stop offset="0"/><stop offset="1" stop-color="#363636"/></linearGradient></defs><rect width="163.31" height="97.986" x="-62.897" y="-32.993" fill-opacity="0" color="#000"/><g fill-rule="evenodd"><g fill="#fff" opacity=".6"><path fill="#fff" fill-rule="evenodd" d="m200.2 998.57c-0.28913 0-0.53125 0.24212-0.53125 0.53125v13.938c0 0.2985 0.23264 0.5312 0.53125 0.5312h15.091c0.2986 0 0.53125-0.2326 0.53125-0.5312l0.0004-8.166c0-0.2891-0.24212-0.5338-0.53125-0.5338h-12.161l-0.0004 6.349c0 0.277-0.30237 0.5637-0.57937 0.5637s-0.57447-0.2867-0.57447-0.5637l0.0004-7.0056c0-0.277 0.23357-0.4974 0.51057-0.4974h2.6507l8.3774 0.0003-0.0004-1.7029c0-0.3272-0.24549-0.6047-0.57258-0.6047h-7.5043v-1.7764c0-0.28915-0.23415-0.53125-0.52328-0.53125z" transform="translate(-7.5118e-7 40) matrix(.86667 0 0 .86667 -172.04 -903.43)"/></g><g fill="url(#a)" opacity=".7" transform="translate(-7.5118e-7 40) matrix(.86667 0 0 .86667 -172.04 -904.43)"><path fill="url(#a)" fill-rule="evenodd" d="m200.2 998.57c-0.28913 0-0.53125 0.24212-0.53125 0.53125v13.938c0 0.2985 0.23264 0.5312 0.53125 0.5312h15.091c0.2986 0 0.53125-0.2326 0.53125-0.5312l0.0004-8.166c0-0.2891-0.24212-0.5338-0.53125-0.5338h-12.161l-0.0004 6.349c0 0.277-0.30237 0.5637-0.57937 0.5637s-0.57447-0.2867-0.57447-0.5637l0.0004-7.0056c0-0.277 0.23357-0.4974 0.51057-0.4974h2.6507l8.3774 0.0003-0.0004-1.7029c0-0.3272-0.24549-0.6047-0.57258-0.6047h-7.5043v-1.7764c0-0.28915-0.23415-0.53125-0.52328-0.53125z"/></g></g></svg>